<?xml version="1.0" encoding="utf-8" ?>
<svg baseProfile="full" height="200mm" version="1.1" viewBox="0,0,200,200" width="200mm" xmlns="http://www.w3.org/2000/svg" xmlns:ev="http://www.w3.org/2001/xml-events" xmlns:xlink="http://www.w3.org/1999/xlink"><defs /><rect fill="#1a1a1a" height="200" width="200" x="0" y="0" /><text alignment-baseline="middle" fill="#e1ed5e" style="dominant-baseline: central; font-size:9.0px; font-family:Arial;" text-anchor="middle" x="100.0" y="100.0">2023</text><line stroke="#e1ed5e" stroke-width="0.3" x1="100.0" x2="100.0" y1="15.0" y2="10.0" /><path d="M 100.0 14.0 a86.0,86.0 0 0,1 42.46469731375804,11.215312516191453" fill="none" id="id61" stroke="none" /><text fill="#e1ed5e" style="font-size:6.75px; font-family:Arial;" text-anchor="middle"><textPath startOffset="22.20632615414155" xlink:href="#id61">January</textPath></text><line stroke="#e1ed5e" stroke-width="0.3" x1="143.23703022742887" x2="145.7803849466894" y1="26.81831364943548" y2="22.513508569990506" /><path d="M 143.74570117128098 25.957352633546492 a86.0,86.0 0 0,1 28.547481713284135,27.462654790039103" fill="none" id="id62" stroke="none" /><text fill="#e1ed5e" style="font-size:6.75px; font-family:Arial;" text-anchor="middle"><textPath startOffset="19.985693538727396" xlink:href="#id62">February</textPath></text><line stroke="#e1ed5e" stroke-width="0.3" x1="172.23445277983987" x2="176.4835382374775" y1="55.19839476539836" y2="52.563006222186495" /><path d="M 173.08426987136738 54.67131705675599 a86.0,86.0 0 0,1 12.851231095245387,41.99856678651699" fill="none" id="id63" stroke="none" /><text fill="#e1ed5e" style="font-size:6.75px; font-family:Arial;" text-anchor="middle"><textPath startOffset="22.20632615414155" xlink:href="#id63">March</textPath></text><line stroke="#e1ed5e" stroke-width="0.3" x1="184.98032266829074" x2="189.97916517819016" y1="98.17113171792111" y2="98.06355123074" /><path d="M 185.9800911702706 98.14961562048488 a86.0,86.0 0 0,1 -9.607161424134198,41.387399972396054" fill="none" id="id64" stroke="none" /><text fill="#e1ed5e" style="font-size:6.75px; font-family:Arial;" text-anchor="middle"><textPath startOffset="21.466115282336823" xlink:href="#id64">April</textPath></text><line stroke="#e1ed5e" stroke-width="0.3" x1="174.80103733775053" x2="179.2010983576182" y1="140.37084112569926" y2="142.7455964860345" /><path d="M 175.68104954172406 140.8457921977663 a86.0,86.0 0 0,1 -30.038265399797805,32.042727171017184" fill="none" id="id65" stroke="none" /><text fill="#e1ed5e" style="font-size:6.75px; font-family:Arial;" text-anchor="middle"><textPath startOffset="22.206326154141568" xlink:href="#id65">May</textPath></text><path d="M 114.81725581225074 114.88116024355365 l 7.309689125174763 7.341214633842783 a31.35977738210844,31.35977738210844 0 0,0 -0.38579999905486695,0.377586499211294 l -7.182239173744101 -7.465951235976649" fill="#ff2403" stroke="none" /><path d="M 113.20401910651253 116.32954008644616 l 32.11544490033123 39.717486067204376 a72.0772013783526,72.0772013783526 0 0,0 -0.9714719902878722,0.7717961030197374 l -31.427015417326004 -40.26441608422924" fill="#3cffa7" stroke="none" /><path d="M 112.34349029814194 116.9893568818739 l 13.023243251710852 17.924956557553028 a43.15646479886617,43.15646479886617 0 0,0 -0.6047508674741856,0.43147368681142445 l -12.712765056387783 -18.146474506208673" fill="#ffd714" stroke="none" /><path d="M 112.04921762599082 117.19931262002967 l 9.552288024123246 13.635141555504212 a37.648221879061026,37.648221879061026 0 0,0 -0.5339649377556411,0.3672659531405826 l -9.316166201744721 -13.79754829800989" fill="#ff860c" stroke="none" /><path d="M 111.45004920935366 117.60387380957326 l 4.448639537044209 6.839559167171936 a29.15904181456368,29.15904181456368 0 0,0 -0.4231090797986689,0.2700482334407551 l -4.330248655198609 -6.9151218294365" fill="#ff0000" stroke="none" /><line stroke="#e1ed5e" stroke-width="0.3" x1="143.8653032363475" x2="146.44561519142675" y1="172.8068346515853" y2="177.08958963109032" /><path d="M 144.38136562736335 173.6633856474863 a86.0,86.0 0 0,1 -40.68145358897372,12.25698825130547" fill="none" id="id66" stroke="none" /><text fill="#e1ed5e" style="font-size:6.75px; font-family:Arial;" text-anchor="middle"><textPath startOffset="21.466115282336833" xlink:href="#id66">June</textPath></text><path d="M 107.93186726928326 119.44442032107085 l 7.793089033019078 19.104215137886847 a41.63257794632622,41.63257794632622 0 0,0 -0.6658812134388181,0.2649678770493716 l -7.463086743538393 -19.235529859342286" fill="#ffc112" stroke="none" /><path d="M 107.59598834532513 119.57807347666477 l 7.3781462677151035 19.01660234113003 a41.397750046229866,41.397750046229866 0 0,0 -0.6665624801977633,0.2520368945266091 l -7.049713566757065 -19.140787485763273" fill="#ffbe11" stroke="none" /><path d="M 105.18746579009965 120.34920634021253 l 2.8911019647571585 11.341111982602023 a32.70381525710919,32.70381525710919 0 0,0 -0.5466936629701447,0.1343640013673243 l -2.6954550170438023 -11.389197242283377" fill="#ff3a05" stroke="none" /><path d="M 103.41894727170886 120.7198165907248 l 2.7711666674459505 16.794077395382416 a38.02117505523218,38.02117505523218 0 0,0 -0.646657150151971,0.10099454767775477 l -2.4816736536854624 -16.839290250407277" fill="#ff8c0c" stroke="none" /><path d="M 103.06178313531738 120.77559828337769 l 2.1239547386014883 14.412003878480752 a35.567671039839276,35.567671039839276 0 0,0 -0.606465051306601,0.08405052998896191 l -1.8755610961080569 -14.446428973962316" fill="#ff6709" stroke="none" /><line stroke="#e1ed5e" stroke-width="0.3" x1="102.19456741930631" x2="102.32365962044197" y1="184.97166512339345" y2="189.96999836594603" /><path d="M 102.22038585953345 185.97133177190398 a86.0,86.0 0 0,1 -42.740103519485714,-10.115201625700543" fill="none" id="id67" stroke="none" /><text fill="#e1ed5e" style="font-size:6.75px; font-family:Arial;" text-anchor="middle"><textPath startOffset="22.20632615414155" xlink:href="#id67">July</textPath></text><path d="M 98.01472825383883 120.90594882070398 l -3.8751820020149643 40.807691320692776 a61.991275980062944,61.991275980062944 0 0,0 -1.0614305779646327,-0.11002161933381789 l 4.57704517658519 -40.7349403329032" fill="#39ff2e" stroke="none" /><path d="M 97.65516085044442 120.86867818915974 l -3.8711130088381487 34.452261525326534 a55.66906171410889,55.66906171410889 0 0,0 -0.9513380777930238,-0.11519379253059721 l 4.463578509682562 -34.38052220407059" fill="#82ff25" stroke="none" /><path d="M 96.22490169976321 120.6578951692458 l -2.6591602556024885 14.551317457088574 a35.792294379234974,35.792294379234974 0 0,0 -0.6051154120672335,-0.11597180890950116 l 2.909243282241417 -14.503388449830606" fill="#ff6a09" stroke="none" /><path d="M 95.51606077576429 120.51570834832081 l -10.660131999153442 48.774113143005756 a70.92546972364008,70.92546972364008 0 0,0 -1.1904666177347476,-0.270946326369871 l 11.498118766281053 -48.5833900830582" fill="#3bff98" stroke="none" /><path d="M 95.16358092515715 120.4354850818985 l -8.016653151786187 33.87303568092977 a55.808752835997794,55.808752835997794 0 0,0 -0.9329275888407171,-0.22929090332158106 l 8.598534025370114 -33.73002351929416" fill="#81ff25" stroke="none" /><path d="M 93.08242187328487 119.8279376855182 l -13.174182500022708 37.76131832314205 a60.993452539704144,60.993452539704144 0 0,0 -0.9883275632819258,-0.354379101182473 l 13.82222962393436 -37.52895168091962" fill="#44ff2d" stroke="none" /><path d="M 92.7421414339146 119.70592522655815 l -12.27639373530513 33.33182849968246 a56.520707119601134,56.520707119601134 0 0,0 -0.9100635343249255,-0.34410815764054664 l 12.848327490390338 -33.11557209193528" fill="#78ff26" stroke="none" /><path d="M 90.7491055286396 118.85261126421891 l -16.784907282179535 34.20634978342304 a59.102591486370706,59.102591486370706 0 0,0 -0.9094653087925163,-0.4560247860186736 l 17.371226498654813 -33.91235715649507" fill="#5aff2a" stroke="none" /><line stroke="#e1ed5e" stroke-width="0.3" x1="58.666819895761336" x2="56.23545636021788" y1="174.27360380694188" y2="178.64263932499728" /><path d="M 58.180547188652646 175.14741091055294 a86.0,86.0 0 0,1 -31.652253787137756,-30.449443065178592" fill="none" id="id68" stroke="none" /><text fill="#e1ed5e" style="font-size:6.75px; font-family:Arial;" text-anchor="middle"><textPath startOffset="22.20632615414155" xlink:href="#id68">August</textPath></text><path d="M 88.24862548938628 117.40417183066458 l -7.617427881591034 11.281661020944005 a34.612534037523204,34.612534037523204 0 0,0 -0.4909097604205791,-0.33765220957145586 l 7.810494526634504 -11.148868022007449" fill="#ff5808" stroke="none" /><path d="M 87.65650970185807 116.9893568818739 l -9.075497837052263 12.49135114219398 a36.440159142571396,36.440159142571396 0 0,0 -0.5042884727224101,-0.37306055628535634 l 9.289171280193237 -12.333280637168855" fill="#ff740a" stroke="none" /><path d="M 86.79598089348748 116.32954008644616 l -12.181134923225851 15.064529172721185 a40.373179584508065,40.373179584508065 0 0,0 -0.5366362108412348,-0.4416150675151011 l 12.438641262611775 -14.852618986348903" fill="#ffaf10" stroke="none" /><path d="M 86.51685102203217 116.09983520530335 l -25.982450510410185 31.024886851810297 a61.46765793437453,61.46765793437453 0 0,0 -0.8053273700808877,-0.6863174559871191 l 26.51264335706813 -30.573045005600225" fill="#3fff2d" stroke="none" /><path d="M 86.24171649860922 115.8653595955263 l -23.974217585115063 27.64586025362766 a57.59312364340533,57.59312364340533 0 0,0 -0.7433836468353058,-0.6559496365976094 l 24.446543584856958 -27.22908747525776" fill="#6bff28" stroke="none" /><path d="M 85.70375840098266 115.38237550388516 l -13.851630136807058 14.903985402704999 a41.34690242594546,41.34690242594546 0 0,0 -0.5171595060112033,-0.48900659240240474 l 14.106125477209078 -14.663344173556663" fill="#ffbd11" stroke="none" /><path d="M 85.44109423537348 115.13401014063109 l -15.455006091419955 16.065508129007732 a43.292549534071725,43.292549534071725 0 0,0 -0.5326015349476532,-0.5212626997099805 l 15.729257578743404 -15.797095326375182" fill="#ffd914" stroke="none" /><path d="M 84.67929136418377 114.36230785411682 l -25.694220578720465 24.086895377702383 a56.218908275020716,56.218908275020716 0 0,0 -0.6557630247869028,-0.7117012486358375 l 26.105030011503096 -23.641042874265203" fill="#7cff26" stroke="none" /><path d="M 84.43433777217949 114.09645910891817 l -19.718883411873698 17.857668348487802 a47.60320811209901,47.60320811209901 0 0,0 -0.5448099903853062,-0.6120997996889508 l 20.02335225190734 -17.515594379057987" fill="#e9ff1a" stroke="none" /><path d="M 83.50135304334701 112.99209946851258 l -28.36450928441596 22.336045311284106 a57.103245104747245,57.103245104747245 0 0,0 -0.6014689777093236,-0.7774797325234246 l 28.74478507934335 -21.84448758464743" fill="#71ff27" stroke="none" /><path d="M 83.06392112726016 112.41649034213515 l -17.96209387349237 13.168701373003396 a43.27221390368487,43.27221390368487 0 0,0 -0.43523647643349733,-0.6045053989081505 l 18.186110142301477 -12.857562368644107" fill="#ffd914" stroke="none" /><path d="M 82.85270091963577 112.12312394758628 l -29.427631937914764 20.80530745951808 a57.03951081741343,57.03951081741343 0 0,0 -0.5599082388484408,-0.8065895779909207 l 29.78140108392534 -20.295676619340146" fill="#72ff27" stroke="none" /><path d="M 82.6465618267979 111.8261652097733 l -18.80146415903429 12.812977988058401 a43.75230668406876,43.75230668406876 0 0,0 -0.41876560831500786,-0.6259977655670758 l 19.01923287276003 -12.487443308285505" fill="#ffdf14" stroke="none" /><line stroke="#e1ed5e" stroke-width="0.3" x1="26.63291911575756" x2="22.317208475507996" y1="142.92168965132927" y2="145.44649492493687" /><path d="M 25.769776987707644 143.4266507060508 a86.0,86.0 0 0,1 -11.730757126820373,-40.83630448921669" fill="none" id="id69" stroke="none" /><text fill="#e1ed5e" style="font-size:6.75px; font-family:Arial;" text-anchor="middle"><textPath startOffset="21.46611528233685" xlink:href="#id69">September</textPath></text><path d="M 81.51974371655577 109.97397251340807 l -17.65545892867594 9.528821427870339 a41.06274327669085,41.06274327669085 0 0,0 -0.33035464200011155,-0.6249064852668342 l 17.81686607890094 -9.223499927517379" fill="#ffb911" stroke="none" /><path d="M 80.45479744820244 107.68017299344265 l -34.841212550094355 13.690650632905312 a58.434529604539215,58.434529604539215 0 0,0 -0.3598056641490173,-0.9393390513182187 l 35.07171249383688 -13.088888014753936" fill="#61ff29" stroke="none" /><path d="M 80.32549172779594 107.34259656027581 l -30.99088990144153 11.565910488939453 a54.0787778238772,54.0787778238772 0 0,0 -0.3179722407494057,-0.8749230428990009 l 31.185386403196162 -11.030739649034336" fill="#96ff23" stroke="none" /><path d="M 79.97269907076064 106.31721596034903 l -31.55142566026603 9.952273172357458 a54.083835970040106,54.083835970040106 0 0,0 -0.27241056599048485,-0.8902534912267722 l 31.718062998762644 -9.407692708578638" fill="#96ff23" stroke="none" /><path d="M 79.76711848015287 105.62410040840567 l -36.369061376384636 10.109447472403392 a58.74797416546372,58.74797416546372 0 0,0 -0.26244097464218397,-0.9766404970825041 l 36.537690427368595 -9.48191604214535" fill="#5eff2a" stroke="none" /><path d="M 79.67330655649465 105.27499134158121 l -47.06081057900678 12.212776712651804 a69.61966482182129,69.61966482182129 0 0,0 -0.2910389939964876,-1.1625561087379745 l 47.26406088729832 -11.400892764516438" fill="#39ff88" stroke="none" /><path d="M 79.23777060512086 103.15116336523772 l -36.10779541887397 5.480218909030913 a57.52130459474519,57.52130459474519 0 0,0 -0.14014914935016196,-0.9802028241344836 l 36.19677861924073 -4.857870612916028" fill="#6cff28" stroke="none" /><path d="M 79.18660465613746 102.79330883721812 l -53.61845848294168 7.195986596323368 a75.09918033742662,75.09918033742662 0 0,0 -0.1609214177134751,-1.2827020311715744 l 53.73438140990201 -6.2719668108643845" fill="#41ffcb" stroke="none" /><path d="M 79.1416061653843 102.43462659150553 l -35.13648343534255 4.101189074381801 a56.375022544528925,56.375022544528925 0 0,0 -0.10420707752404412,-0.9648281169681917 l 35.20187281436764 -3.4957646355288268" fill="#7aff26" stroke="none" /><path d="M 79.10278846688536 102.07522291339032 l -35.74646961766961 3.5498464809932546 a56.9222980913749,56.9222980913749 0 0,0 -0.08843395028894142,-0.9758612723562567 l 35.802278164235624 -2.9340038200884315" fill="#73ff27" stroke="none" /><path d="M 79.07016306316243 101.71520430193888 l -35.905954610448894 2.9425001254868626 a57.02632209199416,57.02632209199416 0 0,0 -0.07175388935173928,-0.9790248114739115 l 35.95128505846497 -2.3240021775161903" fill="#72ff27" stroke="none" /><path d="M 79.0235259727143 100.99374915477108 l -38.452865331840975 1.821683776421965 a59.495991791483654,59.495991791483654 0 0,0 -0.03965795185634439,-1.0233955212643988 l 38.47852541654852 -1.1595110081435696" fill="#55ff2b" stroke="none" /><line stroke="#e1ed5e" stroke-width="0.3" x1="15.007084014347285" x2="10.007500721073583" y1="101.09737516637583" y2="101.16192664675087" /><path d="M 14.007167355692545 101.11028546245083 a86.0,86.0 0 0,1 10.666146001902534,-42.60595125391555" fill="none" id="id70" stroke="none" /><text fill="#e1ed5e" style="font-size:6.75px; font-family:Arial;" text-anchor="middle"><textPath startOffset="22.20632615414155" xlink:href="#id70">October</textPath></text><path d="M 79.00175016825051 100.2711162175752 l -21.763394032738315 0.28099527908432287 a42.76520797445082,42.76520797445082 0 0,0 -0.003168092855277166,-0.736153206924408 l 21.765006422883097 0.0936674060437605" fill="#ffd113" stroke="none" /><path d="M 79.00019446554 99.90962569577889 l -35.984717237164766 -0.15486304278227428 a56.98505046822531,56.98505046822531 0 0,0 0.012664229758658458,-0.9808585512789321 l 35.97672000028839 0.7742578521216783" fill="#73ff27" stroke="none" /><path d="M 79.00486145842228 99.54816195383935 l -36.594014589720466 -0.7875426980702857 a57.60248799322196,57.60248799322196 0 0,0 0.029866356637392257,-0.9911189759306868 l 36.57503653862743 1.4173318214259667" fill="#6bff28" stroke="none" /><path d="M 79.01574976396665 99.18683210126434 l -35.961016000709165 -1.3935377003597706 a56.988006601166234,56.988006601166234 0 0,0 0.046421865091024084,-0.9798922018750366 l 35.93170052738464 2.0123410088578164" fill="#73ff27" stroke="none" /><path d="M 79.03285615573316 98.82574320788736 l -35.94756042482374 -2.013229236287761 a57.00389135154973,57.00389135154973 0 0,0 0.06329985984603727,-0.9792208146370333 l 35.90757997397329 2.6317091151778063" fill="#72ff27" stroke="none" /><path d="M 79.32604984820605 96.31383870115002 l -54.18337445475208 -9.660885147237954 a76.0379030226625,76.0379030226625 0 0,0 0.24083838452212103,-1.2865682803679475 l 54.009050346320095 10.592131505068474" fill="#42ffd5" stroke="none" /><path d="M 79.3925641242962 95.95851677861259 l -56.36592961773292 -11.054357280643059 a78.43967998308597,78.43967998308597 0 0,0 0.271254513741629,-1.322733343083953 l 56.16729580807629 12.022966279890413" fill="#45fff1" stroke="none" /><path d="M 79.46518482838121 95.60439243477599 l -35.94394000191801 -7.69402856933207 a57.75819498407368,57.75819498407368 0 0,0 0.2164711496132075,-0.9703977179891067 l 35.80617446530276 8.311604456871136" fill="#69ff28" stroke="none" /><path d="M 79.54389044137918 95.25157060432595 l -35.00933809322135 -8.126636672948651 a56.94017219407266,56.94017219407266 0 0,0 0.22984090235993132,-0.9528389248025761 l 34.8642643906006 8.728060829410625" fill="#73ff27" stroke="none" /><path d="M 79.71946130924805 94.55025226153421 l -38.48195888560422 -10.340798713802766 a60.84712383237614,60.84712383237614 0 0,0 0.2805145980933757,-1.0091602595373563 l 38.29825751694448 11.001670276759064" fill="#46ff2c" stroke="none" /><path d="M 79.81627453868168 94.20196356495316 l -51.34607452766634 -14.749824628688506 a74.42262344716639,74.42262344716639 0 0,0 0.3642955624687958,-1.2282235356198021 l 51.08457306808583 15.631477551054846" fill="#40ffc3" stroke="none" /><path d="M 80.02781315780177 93.51064311812611 l -50.888364626900646 -16.534631976361922 a74.5071930584489,74.5071930584489 0 0,0 0.4068188756928936,-1.2163366574378827 l 50.59620845743598 17.408141736722126" fill="#40ffc4" stroke="none" /><path d="M 80.14247586403 93.16781622104843 l -27.714957627537807 -9.535613938607677 a50.30950032809132,50.30950032809132 0 0,0 0.28879310812139447,-0.8164570059573671 l 27.546711438606604 10.011268570991655" fill="#c6ff1e" stroke="none" /><path d="M 80.2630227832202 92.82701384747504 l -34.22524076861419 -12.438438541206182 a57.415406890668876,57.415406890668876 0 0,0 0.34557352287107523,-0.9259652329483652 l 34.00606265724149 13.025726911183888" fill="#6dff28" stroke="none" /><path d="M 80.38941819471856 92.48833698450439 l -42.472352425883216 -16.26866566562959 a66.48153694773806,66.48153694773806 0 0,0 0.4185375237271258,-1.065132345815502 l 42.186021352274395 16.997347016340857" fill="#34ff60" stroke="none" /><path d="M 80.65960295795068 91.81776055985345 l -47.962311986845286 -20.29116154782909 a73.07796662777437,73.07796662777437 0 0,0 0.5000944147722725,-1.1542868591573672 l 47.60592686223033 21.113747551573056" fill="#3effb3" stroke="none" /><path d="M 80.95270993114464 91.15688171328213 l -45.40983690134319 -21.082503476741348 a71.06520987925049,71.06520987925049 0 0,0 0.5246704045092381,-1.1050896795317442 l 45.040208302992205 21.86103557191362" fill="#3bff9a" stroke="none" /><path d="M 81.26839172434947 90.50648371742162 l -32.36356449706362 -16.402437099570342 a57.28278172578501,57.28278172578501 0 0,0 0.4533265697701749,-0.8756826418468648 l 32.07642849413333 16.957092463677544" fill="#6fff27" stroke="none" /><path d="M 81.43458229118936 90.18545643968196 l -38.504101516658075 -20.355059472042345 a64.55334981049668,64.55334981049668 0 0,0 0.5277755871799561,-0.9778880078242912 l 38.14801783025965 21.014828463199112" fill="#32ff46" stroke="none" /><line stroke="#e1ed5e" stroke-width="0.3" x1="26.266209847984243" x2="21.928928074336255" y1="57.711370442889674" y2="55.22380399835377" /><path d="M 25.398753493254645 57.213857153982495 a86.0,86.0 0 0,1 29.58750427330803,-30.492523968695096" fill="none" id="id71" stroke="none" /><text fill="#e1ed5e" style="font-size:6.75px; font-family:Arial;" text-anchor="middle"><textPath startOffset="21.46611528233685" xlink:href="#id71">November</textPath></text><path d="M 81.78341655067845 89.55222093294921 l -43.678809979488584 -25.05116054538679 a71.35274655761108,71.35274655761108 0 0,0 0.6202263611458442,-1.0601679005271254 l 43.24112394387242 25.799307858267806" fill="#3bff9e" stroke="none" /><path d="M 81.96595687620814 89.24020034530311 l -43.1975487433915 -25.77330922757421 a71.30200479084155,71.30200479084155 0 0,0 0.6379295357485524,-1.0485884244931163 l 42.74750340935673 26.5130654252744" fill="#3bff9d" stroke="none" /><path d="M 82.15384107792192 88.93136811851018 l -31.68560476913199 -19.652200603123475 a58.28520535186908,58.28520535186908 0 0,0 0.5361472962437253,-0.8480562666058854 l 31.342629876642306 20.194704517443576" fill="#63ff29" stroke="none" /><path d="M 82.34701348167596 88.62581576622439 l -36.65238059744264 -23.61588669934327 a64.60168698635418,64.60168698635418 0 0,0 0.6103424790308155,-0.9295934687545363 l 36.2404414830539 24.24329823207547" fill="#32ff47" stroke="none" /><path d="M 82.54541684631803 88.32363383020206 l -13.010048581904753 -8.70316350677991 a36.652680892718266,36.652680892718266 0 0,0 0.35531376654325103,-0.52137910898626 l 12.858310349692761 8.925820639036587" fill="#ff770b" stroke="none" /><path d="M 82.7489923806493 88.02491185347247 l -41.697066064850674 -28.944746451683613 a71.75868069176713,71.75868069176713 0 0,0 0.7131014799949956,-1.0086314719696565 l 41.1926519650518 29.658204423985055" fill="#3cffa3" stroke="none" /><path d="M 82.95767976084542 87.72973835380427 l -41.467178136095136 -29.8558599016524 a72.0969591368972,72.0969591368972 0 0,0 0.7338007472205589,-1.0009033945469847 l 40.94711477636094 30.565225739870886" fill="#3cffa7" stroke="none" /><path d="M 83.17141714833178 87.43820079747576 l -43.35975510413062 -32.36615595559316 a75.1076372985548,75.1076372985548 0 0,0 0.7822784452435739,-1.0293867362919105 l 42.79620071866294 33.1077274677661" fill="#41ffcb" stroke="none" /><path d="M 83.84228863543731 86.58626213691792 l -31.45508216539787 -26.113241975205614 a61.881824818463905,61.881824818463905 0 0,0 0.6874463308665093,-0.8137196240113175 l 31.000925221044234 26.650820548846045" fill="#3aff2e" stroke="none" /><path d="M 84.07557802195018 86.31012108654704 l -33.17883922672565 -28.523125808201097 a64.75390357789092,64.75390357789092 0 0,0 0.733902662696849,-0.8389776113656525 l 32.68294470045095 29.090018975769695" fill="#32ff49" stroke="none" /><path d="M 84.31358615837235 86.03803664274999 l -47.05924152488297 -41.885890071750055 a84.0,84.0 0 0,0 0.9706254375358201,-1.071788850921776 l 46.331272446731106 42.68973170994139" fill="#4dd2ff" stroke="none" /><path d="M 84.5562425177563 85.77008943001954 l -39.59265696007794 -36.48075725208627 a74.83701454245075,74.83701454245075 0 0,0 0.8810550248126682,-0.9398480706850656 l 38.95883461329481 37.15687473964939" fill="#40ffc8" stroke="none" /><path d="M 84.80347519578584 85.50635884689758 l -39.55857790454564 -37.72887815222958 a75.66579673301939,75.66579673301939 0 0,0 0.9070373834798484,-0.9347817545129387 l 38.90327625736268 38.404224102292645" fill="#41ffd1" stroke="none" /><path d="M 85.05521093208273 85.24692304244772 l -27.14836503077836 -26.800105157095523 a59.14812394175849,59.14812394175849 0 0,0 0.721506278149769,-0.7184079008974538 l 26.683022952461283 27.26344890864309" fill="#59ff2a" stroke="none" /><path d="M 85.31137513191541 84.99185889309783 l -39.236131058000765 -40.08962014455548 a77.09502316369395,77.09502316369395 0 0,0 0.9564069222966814,-0.9200627014891863 l 38.54024089209165 40.75906593280698" fill="#43ffe2" stroke="none" /><path d="M 85.57189188830299 84.74124197986013 l -12.30937095085586 -13.018041677063419 a38.91619441487322,38.91619441487322 0 0,0 0.4907000701792895,-0.4560522368060817 l 12.083462996881714 13.227998499944148" fill="#ff990e" stroke="none" /><path d="M 85.83668400450813 84.49514656593479 l -34.30801695802116 -37.55764361374531 a71.8686211864345,71.8686211864345 0 0,0 0.9205652112275363,-0.8264925359480544 l 33.65644075919766 38.142635158462646" fill="#3cffa4" stroke="none" /><path d="M 86.10567301691215 84.25364557470407 l -37.170363418678235 -42.12494187159881 a77.1795927749765,77.1795927749765 0 0,0 1.003725019274417,-0.8704204458441872 l 36.439744600757045 42.758527310862675" fill="#43ffe3" stroke="none" /><path d="M 86.37877921826538 84.01681056812374 l -24.51286589020438 -28.763484956259624 a58.79178033620696,58.79178033620696 0 0,0 0.7758904194731114,-0.6497859128948027 l 24.01411793377216 29.18117202654824" fill="#5dff2a" stroke="none" /><path d="M 86.65592168130627 83.78471172551755 l -33.763750443501536 -41.02860711646786 a74.13508676880586,74.13508676880586 0 0,0 0.9923390922779617,-0.8024025333973297 l 33.05250795265908 41.60371574712933" fill="#3fffbf" stroke="none" /><path d="M 87.22198572758235 83.33499621200491 l -34.358942194152206 -44.810710773193875 a77.46712945333707,77.46712945333707 0 0,0 1.0651872184260853,-0.8022769292715822 l 33.58250882196773 45.395504291971314" fill="#44ffe6" stroke="none" /><path d="M 87.51073957382395 83.11751280151077 l -24.192091968981988 -32.70191100467454 a61.677663369389066,61.677663369389066 0 0,0 0.8589486442253631,-0.6240627194022745 l 23.625598008402843 33.11349295889349" fill="#3dff2e" stroke="none" /><path d="M 88.09926311788651 82.69761687909137 l -20.78137161715817 -30.213864658958038 a57.67073797894257,57.67073797894257 0 0,0 0.822756303266747,-0.5555287286707152 l 20.258210619484885 30.56710529992742" fill="#6aff28" stroke="none" /><path d="M 88.39885842347998 82.49532879139004 l -32.33438579174784 -48.788542772587924 a79.53062796863045,79.53062796863045 0 0,0 1.1476382254560686,-0.7464558254707065 l 31.489780540507486 49.337897522218164" fill="#47fffd" stroke="none" /><path d="M 89.00827224532344 82.1063720568725 l -26.91757961354278 -43.8196037496765 a72.42678062089904,72.42678062089904 0 0,0 1.0679085096172756,-0.6434029281345469 l 26.159309037707857 44.27645328726967" fill="#3dffab" stroke="none" /><line stroke="#e1ed5e" stroke-width="0.3" x1="56.762969772571076" x2="54.21961505331055" y1="26.818313649435495" y2="22.513508569990535" /><path d="M 56.25429882871897 25.957352633546506 a86.0,86.0 0 0,1 42.265352541879196,-11.944610805530505" fill="none" id="id72" stroke="none" /><text fill="#e1ed5e" style="font-size:6.75px; font-family:Arial;" text-anchor="middle"><textPath startOffset="22.20632615414155" xlink:href="#id72">December</textPath></text><path d="M 89.3179101791058 81.91981866633112 l -22.23917699462235 -37.64135665549667 a64.72016381790493,64.72016381790493 0 0,0 0.9640323198866868,-0.5584297436590221 l 21.587947942270343 38.018590556545746" fill="#32ff48" stroke="none" /><path d="M 89.63071344664047 81.73862282372117 l -19.177096736040145 -33.77283430645998 a59.83767985236813,59.83767985236813 0 0,0 0.9000610300562899,-0.5008829887509278 l 18.59291161691181 34.09793269277109" fill="#51ff2b" stroke="none" /><path d="M 89.94658935756843 81.56283822128135 l -22.289604842685552 -40.877376353633935 a67.55949292678886,67.55949292678886 0 0,0 1.0257942368448834,-0.5479437558184157 l 21.582665559312364 41.254998835954105" fill="#36ff6e" stroke="none" /><path d="M 90.26544431104013 81.39251694778311 l -19.64706791071761 -37.555127820476244 a63.38389910214324,63.38389910214324 0 0,0 0.9711002281831697,-0.4974352546129141 l 18.99770719494568 37.88775560040167" fill="#30ff36" stroke="none" /><path d="M 91.23893434514133 80.91482961587045 l -25.12071337136352 -54.72314827334645 a81.21356323315257,81.21356323315257 0 0,0 1.2755088274915733,-0.5722836307055664 l 24.175022425405174 55.14745223456855" fill="#49efff" stroke="none" /><path d="M 91.56875222667455 80.76684994638697 l -17.713480416707515 -40.40754535812891 a65.11957740439414,65.11957740439414 0 0,0 1.0304901551100671,-0.4412021053314801 l 17.01530650380714 40.70646699142317" fill="#32ff4e" stroke="none" /><path d="M 91.90106846888425 80.62456947434976 l -17.726958886970557 -42.40898432416282 a66.96484551031834,66.96484551031834 0 0,0 1.0673435220393175,-0.4353962220396448 l 16.99433149534286 42.70784143238604" fill="#35ff66" stroke="none" /><path d="M 92.23578459929587 80.48803036053334 l -16.259644996034897 -40.861527293841796 a64.97772695561312,64.97772695561312 0 0,0 1.0427898992426643,-0.40458628019304765 l 15.553871931792557 41.135356277925396" fill="#32ff4c" stroke="none" /><path d="M 92.91201910852362 80.23233633223022 l -19.90671142324988 -55.51780996184216 a79.97884690842784,79.97884690842784 0 0,0 1.2999152259101856,-0.45351489781552534 l 18.948114193276407 55.8522457128299" fill="#47fcff" stroke="none" /><path d="M 93.25333710446033 80.11325718540243 l -17.377708399798685 -51.22325259238033 a75.09072337629837,75.09072337629837 0 0,0 1.2276159631107952,-0.4047256819830143 l 16.49340961444548 51.51479199862257" fill="#40ffca" stroke="none" /><path d="M 93.59665428221793 80.00007090966166 l -16.397997457513885 -51.216785853539854 a74.77781581455305,74.77781581455305 0 0,0 1.2292569436155574,-0.3819361160975396 l 15.513955141187598 51.49146210451992" fill="#40ffc7" stroke="none" /><path d="M 94.28887869178378 79.79150937346287 l -9.015920042389942 -31.902340334485345 a54.15186469911005,54.15186469911005 0 0,0 0.8991842630024316,-0.24578102596088433 l 8.465437890163786 32.05280790127252" fill="#95ff23" stroke="none" /><path d="M 94.63758080256005 79.69619591428918 l -10.775926743056289 -40.801044710834894 a63.200069273251955,63.200069273251955 0 0,0 1.0542105952815453,-0.26874175371531867 l 10.072007259089743 40.98048946071908" fill="#30ff34" stroke="none" /><path d="M 95.33964822691252 79.52364482259891 l -12.730209653840559 -55.93317995008919 a78.36356733293175,78.36356733293175 0 0,0 1.3178411411862054,-0.2880290304360903 l 11.765525788500833 56.14402247862115" fill="#45fff0" stroke="none" /><path d="M 95.692805502759 79.44645832069477 l -11.25729947919364 -53.71881260301511 a75.88567772235402,75.88567772235402 0 0,0 1.2807825345311272,-0.2569129274504342 l 10.330950535195376 53.90462948654275" fill="#42ffd4" stroke="none" /><path d="M 96.40284397218896 79.31037775812273 l -9.576823262480639 -55.08264141061491 a76.90897001887245,76.90897001887245 0 0,0 1.3062468281748514,-0.21554191900356331 l 8.627247228166903 55.2393295925581" fill="#43ffdf" stroke="none" /><path d="M 96.75951476605007 79.25152402106235 l -7.412308011048726 -47.46020537432524 a69.0355431344727,69.0355431344727 0 0,0 1.1756786513258795,-0.17326447200619344 l 6.594260379294197 47.58076433049241" fill="#38ff81" stroke="none" /><path d="M 97.11714578562143 79.19881850522333 l -6.1059903314960176 -44.0576607923197 a65.47876563506937,65.47876563506937 0 0,0 1.1177701464599141,-0.14511864522850618 l 5.3467054565282455 44.156237760712344" fill="#33ff52" stroke="none" /><path d="M 97.83486435360386 79.11191278185805 l -4.531048075335439 -43.71316298114475 a64.94736641116421,64.94736641116421 0 0,0 1.1129964396686465,-0.10569242296545665 l 3.7779265085765563 43.784680948625386" fill="#32ff4b" stroke="none" /><path d="M 98.19473922651362 79.07773832637324 l -3.8314644738428836 -44.405164889354005 a65.5701558092973,65.5701558092973 0 0,0 1.125339401843385,-0.08734799604889404 l 3.066534882637164 44.46453814759136" fill="#33ff54" stroke="none" /><path d="M 98.55514903715128 79.0497635885617 l -3.1227135020791104 -45.27912414216099 a66.38667670911028,66.38667670911028 0 0,0 1.140706305145794,-0.06881051946018522 l 2.342845148093694 45.32616793100148" fill="#34ff5e" stroke="none" /><path d="M 99.27714615592234 79.0124445844662 l -1.8657781630978327 -54.171563050997015 a75.20368411410831,75.20368411410831 0 0,0 1.2941242082884163,-0.03342341026177614 l 0.9330273196145373 54.195653253401154" fill="#41ffcc" stroke="none" /><path d="M 99.63851952072746 79.00311137660856 l -0.6172215557483554 -35.85181774707541 a56.85713036786954,56.85713036786954 0 0,0 0.9787020350208822,-0.008423997402684352 l 8.782463986324157e-15 35.85713036786954" fill="#74ff27" stroke="none" /></svg>