<?xml version="1.0" encoding="utf-8" ?>
<svg baseProfile="full" height="200mm" version="1.1" viewBox="0,0,200,200" width="200mm" xmlns="http://www.w3.org/2000/svg" xmlns:ev="http://www.w3.org/2001/xml-events" xmlns:xlink="http://www.w3.org/1999/xlink"><defs /><rect fill="#1a1a1a" height="200" width="200" x="0" y="0" /><text alignment-baseline="middle" fill="#e1ed5e" style="dominant-baseline: central; font-size:9.0px; font-family:Arial;" text-anchor="middle" x="100.0" y="100.0">2024</text><line stroke="#e1ed5e" stroke-width="0.3" x1="100.0" x2="100.0" y1="15.0" y2="10.0" /><path d="M 100.0 14.0 a86.0,86.0 0 0,1 42.35913384403234,11.155469271406648" fill="none" id="id73" stroke="none" /><text fill="#e1ed5e" style="font-size:6.75px; font-family:Arial;" text-anchor="middle"><textPath startOffset="22.145653131862478" xlink:href="#id73">January</textPath></text><path d="M 100.0 79.0 l 0.0 -19.47167238325102 a40.47167238325102,40.47167238325102 0 0,0 0.6947500738553705,0.005963593807071105 l -0.3342571490065157 19.468803187638382" fill="#ffe415" stroke="none" /><path d="M 100.72087961077811 79.0123766808444 l 0.42901534398529406 -12.490313643331433 a33.497679347549536,33.497679347549536 0 0,0 0.5745238657447966,0.024672526819127575 l -0.643364970330927 12.481108548086475" fill="#ff870c" stroke="none" /><path d="M 101.80034050326958 79.07731436759882 l 1.0905040527614354 -12.673310096257087 a33.720141032432814,33.720141032432814 0 0,0 0.5762939685361466,0.05457563799095304 l -1.3078975846825949 12.65272270276095" fill="#ff8a0c" stroke="none" /><path d="M 102.15924093988457 79.11130261209362 l 1.3759878662850538 -13.311434410740667 a34.38236259707584,34.38236259707584 0 0,0 0.5865698160321842,0.06572637135396095 l -1.6042935839180346 13.285852278879736" fill="#ff930d" stroke="none" /><path d="M 102.51750503828377 79.15144685158666 l 1.4581208559406433 -12.075332402358361 a33.16304933221825,33.16304933221825 0 0,0 0.5645964585713236,0.07309831517694629 l -1.6651951364027586 12.048522490981018" fill="#ff820c" stroke="none" /><path d="M 103.23170211078529 79.25015418208739 l 2.5940684573014265 -16.65578035502638 a37.85657765965704,37.85657765965704 0 0,0 0.6412588729027882,0.10551890350853393 l -2.8796048332572854 16.60879545302218" fill="#ffc212" stroke="none" /><path d="M 103.94208987418118 79.37332000966035 l 3.5863878388128 -18.765496635919074 a40.10513129300802,40.10513129300802 0 0,0 0.6751097552533682,0.13504085860208787 l -3.9079940795971253 18.701166380654126" fill="#ffdf14" stroke="none" /><path d="M 104.29559338865022 79.4440306129975 l 3.962144185839261 -18.960294241581867 a40.36985658895652,40.36985658895652 0 0,0 0.6771324155393414,0.1475778583659561 l -4.287039017997737 18.889484925082193" fill="#ffe315" stroke="none" /><path d="M 104.64783097203109 79.52079915486377 l 2.36251523562487 -10.409678041478593 a31.674402801365574,31.674402801365574 0 0,0 0.5292156901185949,0.12489346188837167 l -2.5408630794833496 10.367588435943993" fill="#ff6d0a" stroke="none" /><path d="M 105.69591212413111 79.78721728523813 l 3.631843864786133 -12.888132627934715 a34.39008037666018,34.39008037666018 0 0,0 0.5668467617034658,0.16500083101865815 l -3.852550638871203 12.82388810261354" fill="#ff930d" stroke="none" /><path d="M 106.38641147887787 79.99465700312896 l 4.092685855502478 -12.820280150842327 a34.45769893621907,34.45769893621907 0 0,0 0.5619513523159336,0.18472457127838499 l -4.312159945466154 12.74813465816192" fill="#ff940d" stroke="none" /><path d="M 106.72888874123014 80.10723608172694 l 5.111159878784495 -15.11023598803351 a36.95127540106306,36.95127540106306 0 0,0 0.5991283804588987,0.20840795129007594 l -5.369794031288412 15.020269604174844" fill="#ffb610" stroke="none" /><path d="M 107.06938296918511 80.22567764915836 l 6.434141034387462 -17.997437600897324 a40.11297807900646,40.11297807900646 0 0,0 0.6464127114950512,0.23737170140999442 l -6.742142897536638 17.884335050478608" fill="#ffdf14" stroke="none" /><path d="M 108.07796709384702 80.6158196554323 l 7.396472290423536 -17.74884090582341 a40.2283425141959,40.2283425141959 0 0,0 0.6351574934160743,0.2711109651401507 l -7.70006485901004 17.61925529102386" fill="#ffe115" stroke="none" /><path d="M 108.73861861582097 80.90454125486305 l 7.175323773241342 -15.679377384300487 a38.24320580432061,38.24320580432061 0 0,0 0.5946113482307355,0.2783081346590438 l -7.443423835343582 15.55389301807091" fill="#ffc712" stroke="none" /><path d="M 109.06512990194946 81.05736502329252 l 5.324528274851694 -11.12621624009862 a33.33463778029697,33.33463778029697 0 0,0 0.5140514661766977,0.25144833155449214 l -5.514739990290459 11.033174158446906" fill="#ff840c" stroke="none" /><path d="M 109.3889696526874 81.21577127319529 l 13.46345472938195 -26.93592826954167 a51.113266926589205,51.113266926589205 0 0,0 0.7814799342578781,0.3990292226970584 l -13.923861885353407 26.700841095171775" fill="#99ff23" stroke="none" /><path d="M 110.02825361518725 81.54914285379988 l 1.8270627614910309 -3.361589694775927 a24.826021904073595,24.826021904073595 0 0,0 0.3726927471534837,0.20672638436943838 l -1.884499696800615 3.3297303949733426" fill="#ff0901" stroke="none" /><line stroke="#e1ed5e" stroke-width="0.3" x1="143.13028292997686" x2="145.6673583964461" y1="26.7553504044142" y2="22.446841604673864" /><path d="M 143.63769802327073 25.89364864446614 a86.0,86.0 0 0,1 29.32050498858742,28.57503671076993" fill="none" id="id74" stroke="none" /><text fill="#e1ed5e" style="font-size:6.75px; font-family:Arial;" text-anchor="middle"><textPath startOffset="20.669276256404974" xlink:href="#id74">February</textPath></text><path d="M 110.65571695917076 81.90426304109057 l 6.2684399932759725 -10.645181520461243 a33.353672715143105,33.353672715143105 0 0,0 0.49088227070260937,0.29476069936369587 l -6.450255020536016 10.536006820561626" fill="#ff850c" stroke="none" /><path d="M 111.5731344415666 82.4767994020092 l 22.144778028017395 -33.530016396353176 a61.182747460195834,61.182747460195834 0 0,0 0.8714279461794456,0.5863356127831141 l -22.717102262293842 33.14493110951294" fill="#30ff32" stroke="none" /><path d="M 112.45986205192187 83.09580414077388 l 11.348254798364827 -15.396087129421492 a40.12648388662559,40.12648388662559 0 0,0 0.5509691282966088,0.41345750551727994 l -11.610876915572202 15.199010596640196" fill="#ffdf14" stroke="none" /><path d="M 112.7482090630111 83.31218511350987 l 8.539367717685817 -11.178306459837078 a35.066816851295464,35.066816851295464 0 0,0 0.4752222547226936,0.369535699628477 l -8.729999917043736 11.03006970858781" fill="#ff9c0e" stroke="none" /><path d="M 113.03279911837588 83.53348406188908 l 9.084397748588136 -11.477839791480413 a35.63786489667958,35.63786489667958 0 0,0 0.47644300552029195,0.38378875961638526 l -9.280091524463687 11.320202738070618" fill="#ffa40f" stroke="none" /><path d="M 113.31354834802062 83.75963576809568 l 12.188416696629814 -14.867886561055041 a40.22528419459867,40.22528419459867 0 0,0 0.5302567181284225,0.44235901349642776 l -12.441847748920129 14.656465363646744" fill="#ffe115" stroke="none" /><path d="M 113.59037401385872 83.9905735841838 l 7.489745971627164 -8.822901921878433 a32.573240386451474,32.573240386451474 0 0,0 0.423173732763862,0.3655273915097353 l -7.640099184153886 8.693030397903977" fill="#ff7a0b" stroke="none" /><path d="M 114.13192950727249 84.46653392183569 l 19.77793104086836 -21.73941079747828 a50.389939402435985,50.389939402435985 0 0,0 0.6348417995799018,0.5876000920534082 l -20.148202611762226 21.396692959292498" fill="#a1ff22" stroke="none" /><path d="M 114.91283532996326 85.21462403516908 l 28.521658625262976 -28.277885230032567 a61.163712525349695,61.163712525349695 0 0,0 0.7328379696188284,0.7519563163303483 l -29.002883396032615 27.784106221634477" fill="#30ff32" stroke="none" /><path d="M 115.16444852881244 85.47280134310134 l 4.9483592524036695 -4.740416227387873 a27.852576544609427,27.852576544609427 0 0,0 0.3277905623054523,0.348102217937257 l -5.029005648445382 4.654772549506121" fill="#ff3605" stroke="none" /><path d="M 115.8921839302757 86.27271002978787 l 14.419485350538286 -12.455208012724707 a40.05396978098344,40.05396978098344 0 0,0 0.4449909001440609,0.5241981614560043 l -14.631170814189458 12.205843068819151" fill="#ffde14" stroke="none" /><path d="M 117.01052211995028 87.68569379921539 l 24.207469666461357 -17.52434121169008 a50.88484770843556,50.88484770843556 0 0,0 0.5061464952330723,0.7119584320074798 l -24.50473126022439 17.106205552973094" fill="#9cff22" stroke="none" /><path d="M 117.42321728460499 88.27688183743584 l 16.740418770090585 -11.263700849669346 a41.17703093690554,41.17703093690554 0 0,0 0.38956522499849516,0.5898514026702985 l -16.931308434009804 10.974669568659989" fill="#ffed16" stroke="none" /><path d="M 117.81537515405839 88.88188828441811 l 16.309792874769737 -10.17851702092185 a40.22528419459867,40.22528419459867 0 0,0 0.3605565297290114,0.5889419944371751 l -16.48211736895415 9.89703791036012" fill="#ffe115" stroke="none" /><line stroke="#e1ed5e" stroke-width="0.3" x1="172.87174338648825" x2="177.1583165268699" y1="56.24261187166439" y2="53.66864786411523" /><path d="M 173.72905801456457 55.72781907015455 a86.0,86.0 0 0,1 12.242430191666344,42.057860355516425" fill="none" id="id75" stroke="none" /><text fill="#e1ed5e" style="font-size:6.75px; font-family:Arial;" text-anchor="middle"><textPath startOffset="22.145653131862474" xlink:href="#id75">March</textPath></text><path d="M 118.18653347947321 89.5 l 5.0443295636577785 -2.9123450314590067 a26.824690062918013,26.824690062918013 0 0,0 0.2268176166103279,0.40076499530619 l -5.093580545289483 2.8253232660536987" fill="#ff2703" stroke="none" /><path d="M 118.36410011445183 89.81374322990088 l 41.61422014125395 -23.082706422007348 a68.58733711534325,68.58733711534325 0 0,0 0.5622680496146021,1.034509881720615 l -42.00433354048389 22.36494170681213" fill="#39ff8b" stroke="none" /><path d="M 118.8641267826498 90.77261029715802 l 17.116023888630945 -8.372304978824223 a40.05396978098344,40.05396978098344 0 0,0 0.29682040471275734,0.6202404864494265 l -17.257223551303614 8.077251990309692" fill="#ffde14" stroke="none" /><path d="M 119.0197475246899 91.09779779509293 l 17.464103354116443 -8.174082183999719 a40.28238899913708,40.28238899913708 0 0,0 0.28776114964869237,0.6288100446014827 l -17.601848968620185 7.873083157183552" fill="#ffe115" stroke="none" /><path d="M 119.16976305983485 91.42560881287824 l 8.983372079740015 -4.018148067387854 a30.841061315452983,30.841061315452983 0 0,0 0.2120192522185018,0.48514154099346946 l -9.051025213975487 3.863344456618535" fill="#ff6109" stroke="none" /><path d="M 119.4528033332814 92.08871423366111 l 37.22224208257629 -15.137961811154161 a61.182747460195834,61.182747460195834 0 0,0 0.38731978650340093,0.9762988779995688 l -37.476620544045815 14.496761915941027" fill="#30ff32" stroke="none" /><path d="M 119.58574465831526 92.42381321644754 l 11.024624044458761 -4.264561416295299 a32.82069453945126,32.82069453945126 0 0,0 0.19875168006272093,0.5272124444864433 l -11.096206408335924 4.074680691614698" fill="#ff7d0b" stroke="none" /><path d="M 119.71291397450082 92.76114493625339 l 10.935391822707867 -4.015627348257963 a32.649380125836025,32.649380125836025 0 0,0 0.18868205810676758,0.5277772975501407 l -11.002714050858579 3.827315094326906" fill="#ff7b0b" stroke="none" /><path d="M 119.94978838288452 93.4421083053983 l 11.989026539399694 -3.9410311558262494 a33.62016180298903,33.62016180298903 0 0,0 0.17552171404215736,0.5498192693072592 l -12.054912969219108 3.734642852827603" fill="#ff880c" stroke="none" /><path d="M 120.16314734710363 94.1308016681162 l 39.148027996608754 -11.395420400339514 a61.77283044042609,61.77283044042609 0 0,0 0.2876305004421916,1.020699175281457 l -39.337876989125526 10.721713301155045" fill="#30ff39" stroke="none" /><path d="M 120.26092885502905 94.47779374421319 l 7.382738818687424 -2.0121982946145325 a28.652043808147194,28.652043808147194 0 0,0 0.12526471514436224,0.47565052671832164 l -7.416193014636517 1.8851672635234122" fill="#ff4206" stroke="none" /><path d="M 120.35273937422433 94.82641323984039 l 13.006010137608815 -3.306076917373148 a34.419629066526795,34.419629066526795 0 0,0 0.14064921459954396,0.5738967922282987 l -13.06084687872465 3.0823243005367544" fill="#ff930d" stroke="none" /><path d="M 120.43855184770803 95.1765574152323 l 14.876397224987084 -3.510789238767395 a36.28505268144825,36.28505268144825 0 0,0 0.13786443294225914,0.607456129238613 l -14.93447251948701 3.254898775589756" fill="#ffad10" stroke="none" /><path d="M 120.51834098615036 95.52812308129327 l 17.928806362123883 -3.9074998999608033 a39.349677191676356,39.349677191676356 0 0,0 0.13817787021125788,0.6612311299129778 l -17.993241943159507 3.599152318762421" fill="#ffd513" stroke="none" /><path d="M 120.65975698304385 96.23510406497455 l 11.2546444758891 -2.050971135440175 a32.43999584252852,32.43999584252852 0 0,0 0.09513443164348946,0.5487101207282447 l -11.288193725024822 1.8574679817913378" fill="#ff780b" stroke="none" /><path d="M 120.77682067341334 96.94652285012252 l 39.75570181645449 -5.842719104238358 a61.182747460195834,61.182747460195834 0 0,0 0.14379543235134798,1.0404321168798785 l -39.85014176536105 5.159398679158394" fill="#30ff32" stroke="none" /><path d="M 120.86939407059847 97.66154086499901 l 10.990515727404361 -1.2315102112777196 a32.05929714560577,32.05929714560577 0 0,0 0.05658864018604562,0.5474437607239026 l -11.010036760072072 1.0426619282708856" fill="#ff720a" stroke="none" /><path d="M 120.93736805541906 98.37931529534042 l 18.238015273804894 -1.4117377274625045 a39.292572387137945,39.292572387137945 0 0,0 0.04628298078536649,0.6729443829012378 l -18.259562215755327 1.0984499204069325" fill="#ffd513" stroke="none" /><path d="M 120.96210409425399 98.7389718711861 l 13.33841069246643 -0.8024056650631286 a34.36252426198838,34.36252426198838 0 0,0 0.030367325360117266,0.5891179992901077 l -13.35021960728312 0.5733158723962903" fill="#ff930d" stroke="none" /><line stroke="#e1ed5e" stroke-width="0.3" x1="184.99686870605535" x2="189.99668451229388" y1="99.2704041080226" y2="99.22748670261217" /><path d="M 185.99683186730306 99.26182062694052 a86.0,86.0 0 0,1 -10.086455211305974,41.156179273409016" fill="none" id="id76" stroke="none" /><text fill="#e1ed5e" style="font-size:6.75px; font-family:Arial;" text-anchor="middle"><textPath startOffset="21.40746469413373" xlink:href="#id76">April</textPath></text><path d="M 120.99922638620191 100.18025310272382 l 19.03423362288764 0.16338600315057683 a40.0349348461373,40.0349348461373 0 0,0 -0.011798044416103631,0.6871769397270235 l -19.02862414687287 -0.4901098588466714" fill="#ffde14" stroke="none" /><path d="M 120.98066250479742 100.90099992219065 l 14.285096310523048 0.6134635005602934 a35.298262624089645,35.298262624089645 0 0,0 -0.031194269011789146,0.6051604852127701 l -14.272460452054686 -0.8585957791497942" fill="#ff9f0e" stroke="none" /><path d="M 120.96210409425399 101.26102812881392 l 15.206339206377656 0.9147756059843424 a36.23382967177729,36.23382967177729 0 0,0 -0.04268006751902209,0.6205588147393414 l -15.188395177693568 -1.1756778448780274" fill="#ffac0f" stroke="none" /><path d="M 120.93736805541906 101.62068470465957 l 27.847665375716367 2.155585421025264 a48.9309687512841,48.9309687512841 0 0,0 -0.07201328485677339,0.836903528903841 l -27.806558468161853 -2.6333099973047625" fill="#b2ff20" stroke="none" /><path d="M 120.86939407059847 102.33845913500097 l 18.927124656963827 2.120823796016907 a40.04557537471629,40.04557537471629 0 0,0 -0.08241362962983934,0.6825030779929144 l -18.887928941074325 -2.44542055093323" fill="#ffde14" stroke="none" /><path d="M 120.82617615685814 102.69636545807757 l 18.88426673003572 2.4449464043942633 a40.041882597356135,40.041882597356135 0 0,0 -0.09410887969676321,0.680924973199782 l -18.839513333783746 -2.7687596857941306" fill="#ffde14" stroke="none" /><path d="M 120.7213421655516 103.40968896794604 l 8.04282863790404 1.3234443917118646 a29.150987520334144,29.150987520334144 0 0,0 -0.0854889946057799,0.4930778030698895 l -8.018924825806026 -1.461315227702342" fill="#ff4906" stroke="none" /><path d="M 120.51834098615036 104.47187691870673 l 39.44984622137588 8.597910371163946 a61.375913979014435,61.375913979014435 0 0,0 -0.2331967284522135,1.027507813244467 l -39.296438631366 -9.27385251834743" fill="#30ff34" stroke="none" /><path d="M 120.26092885502905 105.52220625578681 l 18.373304561926997 5.007725860809455 a40.043519601752905,40.043519601752905 0 0,0 -0.18645312996669164,0.661656380992515 l -18.284632939885725 -5.322390165704978" fill="#ffde14" stroke="none" /><path d="M 119.94978838288452 106.5578916946017 l 28.946500973086533 9.515289820419481 a51.47032423443305,51.47032423443305 0 0,0 -0.2831225145463914,0.837001406682425 l -28.778893036967776 -10.010792901576066" fill="#95ff23" stroke="none" /><path d="M 119.83427380445688 106.89939002012753 l 19.786331695302817 6.882713265903882 a41.94924017374363,41.94924017374363 0 0,0 -0.2424263168700625,0.6781095545412897 l -19.66526520838881 -7.2213577768260935" fill="#fff717" stroke="none" /><path d="M 119.4528033332814 107.91128576633889 l 36.0852095287601 14.675540570125111 a59.955279972808654,59.955279972808654 0 0,0 -0.3959165626575144,0.95005562201415 l -35.827967121566104 -15.29282870158054" fill="#3aff2e" stroke="none" /><path d="M 119.31412917781788 108.2440532568976 l 17.512648366289636 7.475108221126862 a40.04127347944106,40.04127347944106 0 0,0 -0.2752668195868539,0.6298643526065677 l -17.381747664685818 -7.774634643509274" fill="#ffde14" stroke="none" /><path d="M 118.8641267826498 109.22738970284198 l 17.106465589576256 8.367629535784099 a40.04332925240445,40.04332925240445 0 0,0 -0.30734225162827267,0.6148903836688973 l -16.960303424736253 -8.660051775616742" fill="#ffde14" stroke="none" /><line stroke="#e1ed5e" stroke-width="0.3" x1="174.33088141563837" x2="178.70328620479359" y1="141.23008692659167" y2="143.65538615756765" /><path d="M 175.20536237346943 141.71514677278685 a86.0,86.0 0 0,1 -30.301960400862466,31.631185727798858" fill="none" id="id77" stroke="none" /><text fill="#e1ed5e" style="font-size:6.75px; font-family:Arial;" text-anchor="middle"><textPath startOffset="22.145653131862474" xlink:href="#id77">May</textPath></text><path d="M 118.36410011445183 110.18625677009912 l 8.633519150137335 4.788867537465606 a30.872735447036955,30.872735447036955 0 0,0 -0.2610460831388365,0.4612434159537466 l -8.55003970197712 -4.936367723518476" fill="#ff6209" stroke="none" /><path d="M 118.00360718960297 110.81064883170644 l 34.480214200506055 20.704377930382346 a61.21885673159896,61.21885673159896 0 0,0 -0.5487309531572298,0.8963107732502377 l -34.119715282893424 -21.29322581975714" fill="#30ff32" stroke="none" /><path d="M 117.81537515405839 111.11811171558189 l 19.385900552500193 12.09823571976583 a43.85126796837421,43.85126796837421 0 0,0 -0.4040211691263197,0.6351883839990766 l -19.175361691747984 -12.429237778443579" fill="#efff19" stroke="none" /><path d="M 117.62189284568427 111.42229804090321 l 16.121049487847525 10.44946950902846 a40.21144579696553,40.21144579696553 0 0,0 -0.3804300740724244,0.5760196198478773 l -15.939294974854374 -10.7246690072154" fill="#ffe115" stroke="none" /><path d="M 117.21940702142032 112.02048342749411 l 15.614789353632977 10.9003356744903 a40.04308179825145,40.04308179825145 0 0,0 -0.3983045331421181,0.5602652069076391 l -15.425369721960898 -11.166778108107444" fill="#ffde14" stroke="none" /><path d="M 116.79662413953412 112.60449989151573 l 15.23120623948729 11.429781115444804 a40.042834344098445,40.042834344098445 0 0,0 -0.4172997674921473,0.5462587911497218 l -15.03275449464084 -11.689560819835403" fill="#ffde14" stroke="none" /><path d="M 116.1254893667686 113.45245675266167 l 36.54718842186501 30.488964427318873 a68.59489398447715,68.59489398447715 0 0,0 -0.7620743658205547,0.8977216867278764 l -36.01841949253734 -31.111852896496305" fill="#39ff8b" stroke="none" /><path d="M 115.89218393027572 113.72728997021213 l 11.777046235920865 10.172732041257976 a36.562239402677704,36.562239402677704 0 0,0 -0.4143527835587975,0.4714574059985372 l -11.600682388403483 -10.373401725067808" fill="#ffb010" stroke="none" /><path d="M 115.41159269507618 114.26474011684316 l 15.254650466950993 14.1194767335019 a41.78614885198193,41.78614885198193 0 0,0 -0.4917715675902672,0.5222443629634811 l -15.010023065624466 -14.379262556409879" fill="#fff517" stroke="none" /><path d="M 115.16444852881244 114.52719865689866 l 12.415722018570534 11.893980838796105 a38.193514284056825,38.193514284056825 0 0,0 -0.4576186811573275,0.46955708087286724 l -12.2097165362624 -12.10536061173671" fill="#ffc612" stroke="none" /><path d="M 114.65682725009322 115.03919595460226 l 15.9475405194104 16.36358147455461 a43.84930737008506,43.84930737008506 0 0,0 -0.5435800563896235,0.5207373977429207 l -15.664287977155464 -16.63493100260311" fill="#efff19" stroke="none" /><path d="M 114.13192950727249 115.5334660781643 l 13.704159161115681 15.063271533402952 a41.36433469579153,41.36433469579153 0 0,0 -0.5293353988067788,0.4733349776570674 l -13.443558735485524 -15.296302040943406" fill="#ffef16" stroke="none" /><path d="M 113.31354834802062 116.24036423190432 l 13.811527632963188 16.847817989235136 a42.78548293140413,42.78548293140413 0 0,0 -0.5719995891890572,0.46076237932429776 l -13.520277273418879 -17.082428662352836" fill="#fdff18" stroke="none" /><path d="M 112.45986205192187 116.90419585922612 l 23.983057731959587 32.53762389300602 a61.42133133355732,61.42133133355732 0 0,0 -0.8541045294052931,0.6183058126263177 l -23.420972192180326 -32.944530477005415" fill="#30ff35" stroke="none" /><path d="M 111.27062007382361 117.71928675628689 l 5.403312007967388 8.494903942794453 a31.067729319600787,31.067729319600787 0 0,0 -0.4524583839516869,0.2823674952632424 l -5.256689495225986 -8.586407234899244" fill="#ff6409" stroke="none" /><line stroke="#e1ed5e" stroke-width="0.3" x1="143.1302829299769" x2="145.66735839644613" y1="173.24464959558577" y2="177.55315839532614" /><path d="M 143.63769802327073 174.10635135553383 a86.0,86.0 0 0,1 -40.68552437913181,11.842963189579606" fill="none" id="id78" stroke="none" /><text fill="#e1ed5e" style="font-size:6.75px; font-family:Arial;" text-anchor="middle"><textPath startOffset="21.407464694133747" xlink:href="#id78">June</textPath></text><path d="M 110.34350942703117 118.27599006163325 l 19.499190255787063 34.45320080565213 a60.58840065456004,60.58840065456004 0 0,0 -0.9095640684131974,0.5045198562395963 l -18.90488199921777 -34.78285357732487" fill="#33ff2f" stroke="none" /><path d="M 109.71004243097381 118.62028667847754 l 5.836509721718188 11.192276964047695 a33.62267441438872,33.62267441438872 0 0,0 -0.5140631184594018,0.26248429113010513 l -5.643519381545203 -11.290819206850635" fill="#ff880c" stroke="none" /><path d="M 109.06512990194946 118.94263497670748 l 11.507234107656762 24.04569351466041 a47.657303190859366,47.657303190859366 0 0,0 -0.7409832075363363,0.34681755556251254 l -11.09276218624892 -24.239687301793456" fill="#c1ff1e" stroke="none" /><path d="M 108.4095320186766 119.2426549942271 l 12.961180323447275 29.65771706774593 a53.36622278004317,53.36622278004317 0 0,0 -0.8425889354525256,0.3596511131095195 l -12.450156312824317 -29.875842830514856" fill="#80ff26" stroke="none" /><path d="M 107.06938296918513 119.77432235084164 l 8.09954612833957 22.65587205212053 a45.06015764551755,45.06015764551755 0 0,0 -0.730605885192386,0.25414265239245293 l -7.7094344711021625 -22.79157313708157" fill="#e0ff1b" stroke="none" /><path d="M 106.38641147887787 120.00534299687104 l 5.894197021481976 18.46348821961607 a40.38148486994607,40.38148486994607 0 0,0 -0.6621782177866051,0.20514450454096242 l -5.576378170823747 -18.56194931196368" fill="#ffe315" stroke="none" /><path d="M 106.0420521117495 120.11202640906438 l 11.527289367349686 38.37059725622502 a61.06471182921494,61.06471182921494 0 0,0 -1.0065208855469148,0.2929835605901433 l -10.866908469421166 -38.562824511117675" fill="#2fff30" stroke="none" /><path d="M 104.9986988182912 120.39639698878246 l 2.765518434394605 11.284258947809747 a32.61820090255805,32.61820090255805 0 0,0 -0.5449846618838321,0.12861489628828504 l -2.571401618770894 -11.330069987744256" fill="#ff7a0b" stroke="none" /><path d="M 104.64783097203109 120.47920084513623 l 3.3719055236435675 14.85723789549615 a36.23506694254229,36.23506694254229 0 0,0 -0.6077786863564254,0.1324625358860029 l -3.116364420668006 -14.912931889515871" fill="#ffac0f" stroke="none" /><path d="M 103.94208987418118 120.62667999033965 l 2.9698061511404714 15.53928070339612 a36.82052443360494,36.82052443360494 0 0,0 -0.6218552909063955,0.11332274909279669 l -2.702616126683019 -15.58797162642028" fill="#ffb410" stroke="none" /><path d="M 103.58742460773223 120.69131181640829 l 6.864083257410908 39.590208169603315 a61.18084396671122,61.18084396671122 0 0,0 -1.0363525038647092,0.1705314101325529 l -6.183453250493126 -39.70220557823154" fill="#30ff32" stroke="none" /><path d="M 102.51750503828377 120.84855314841334 l 1.8643464971169539 15.439463453347757 a36.55161790903356,36.55161790903356 0 0,0 -0.6235777350100946,0.0698731858665684 l -1.59903286050606 -15.469192399721297" fill="#ffb010" stroke="none" /><path d="M 101.08105385017728 120.97215588758144 l 1.4702330925232068 28.522129219021974 a49.55999720820955,49.55999720820955 0 0,0 -0.8500111570996136,0.03650313645876151 l -0.9803961748227636 -28.543164923906566" fill="#abff21" stroke="none" /><line stroke="#e1ed5e" stroke-width="0.3" x1="101.45913802915013" x2="101.54496967792366" y1="184.9874750549273" y2="189.98673829345242" /><path d="M 101.47630435890484 185.9873277026323 a86.0,86.0 0 0,1 -42.54439059252881,-10.42667462771756" fill="none" id="id79" stroke="none" /><text fill="#e1ed5e" style="font-size:6.75px; font-family:Arial;" text-anchor="middle"><textPath startOffset="22.145653131862474" xlink:href="#id79">July</textPath></text><path d="M 100.36049292484886 120.99690560180557 l 0.3595973846953827 20.944744877505737 a41.94783158856502,41.94783158856502 0 0,0 -0.7200903095442324,0.0061811092537197776 l -2.565369490401397e-15 -20.947831588565023" fill="#fff717" stroke="none" /><path d="M 100.0 121.0 l 1.400515220997313e-15 11.436074645950214 a32.436074645950214,32.436074645950214 0 0,0 -0.5568083533206805,-0.004779530038999254 l 0.1963154284718269 -11.43438951410565" fill="#ff780b" stroke="none" /><path d="M 99.63950707515114 120.99690560180557 l -0.3595535988596082 20.942194572085093 a41.94528090729564,41.94528090729564 0 0,0 -0.7198343226929512,-0.018540378724437 l 0.7190012356233033 -20.93293647601061" fill="#fff717" stroke="none" /><path d="M 98.55909050195518 120.95050786540614 l -4.322728494134462 62.8515235962184 a84.0,84.0 0 0,0 -1.4377240208990556,-0.1112889320197854 l 5.4010215098087535 -62.76805689720356" fill="#4dd2ff" stroke="none" /><path d="M 97.48249496171623 120.84855314841334 l -2.1059276529133557 17.440101978269993 a38.56678935638958,38.56678935638958 0 0,0 -0.6565944063512068,-0.0850092913801329 l 2.4049998811553563 -17.401381090689465" fill="#ffcb12" stroke="none" /><path d="M 97.12497278360702 120.80226474461374 l -2.6077856071691796 18.868637586529072 a40.047992811441745,40.047992811441745 0 0,0 -0.6801958860307228,-0.0999653714147547 l 2.9313065988075873 -18.821091141815437" fill="#ffde14" stroke="none" /><path d="M 96.76829788921471 120.74984581791261 l -0.5775788673930876 3.7084706557866927 a24.75317891298697,24.75317891298697 0 0,0 -0.4192982195381895,-0.06899536246332236 l 0.6411545899843407 -3.6980092948277017" fill="#ff0801" stroke="none" /><path d="M 96.05791012581884 120.62667999033965 l -7.591682678880585 39.722891715653894 a61.44183195838661,61.44183195838661 0 0,0 -1.0342811206050457,-0.20688519085317125 l 8.272460285016589 -39.58671712813786" fill="#30ff35" stroke="none" /><path d="M 95.70440661134978 120.55596938700252 l -3.5071374417644945 16.782922256888625 a38.14545107357033,38.14545107357033 0 0,0 -0.6398219763393991,-0.13944622179759839 l 3.79472183472303 -16.720244576957306" fill="#ffc612" stroke="none" /><path d="M 93.27111125876986 119.89276391827306 l -6.103645879924644 18.04434449719911 a40.04869710403105,40.04869710403105 0 0,0 -0.6493500095733249,-0.22587764088510426 l 6.41250166154299 -17.936908423745415" fill="#ffde14" stroke="none" /><path d="M 92.59220618246901 119.65005319985036 l -6.742814358835067 17.886116181347095 a40.11488157249107,40.11488157249107 0 0,0 -0.64227313673613,-0.2484450468879735 l 7.048859758064725 -17.76773124632108" fill="#ffdf14" stroke="none" /><path d="M 91.92203290615298 119.3841803445677 l -6.377175961645135 15.302900778554752 a37.57851457411297,37.57851457411297 0 0,0 -0.5933198742844107,-0.253252973351454 l 6.638930911099977 -15.191173155543895" fill="#ffbe11" stroke="none" /><line stroke="#e1ed5e" stroke-width="0.3" x1="58.13341422392154" x2="55.67067388415222" y1="173.97424548756322" y2="178.32567169271397" /><path d="M 57.64086615596768 174.84453072859336 a86.0,86.0 0 0,1 -31.369924170532247,-30.572349798747897" fill="none" id="id80" stroke="none" /><text fill="#e1ed5e" style="font-size:6.75px; font-family:Arial;" text-anchor="middle"><textPath startOffset="22.145653131862474" xlink:href="#id80">August</textPath></text><path d="M 88.4268655584334 117.5232005979908 l -10.535113269688008 15.951504242813243 a40.1164614720833,40.1164614720833 0 0,0 -0.5713801207006465,-0.384450045091986 l 10.807389678485661 -15.768304523664137" fill="#ffdf14" stroke="none" /><path d="M 87.54013794807813 116.9041958592261 l -8.043349437645066 10.91234828215263 a34.5563570035266,34.5563570035266 0 0,0 -0.47448677409997153,-0.3560637210778599 l 8.229489200655804 -10.772665533810756" fill="#ff950d" stroke="none" /><path d="M 86.40962598614128 116.0094264158162 l -5.0563053318554525 5.956314967026812 a28.81306032201067,28.81306032201067 0 0,0 -0.37432352888928444,-0.3233317488823672 l 5.157808340507599 -5.868639085679723" fill="#ff4406" stroke="none" /><path d="M 85.60350026404147 115.28858382429668 l -13.05363421128166 13.86250717265748 a40.04117830476683,40.04117830476683 0 0,0 -0.49637240052874537,-0.4755135313085775 l 13.28967909767572 -13.63638151104332" fill="#ffde14" stroke="none" /><path d="M 84.83555147118756 114.52719865689866 l -13.75417072369151 13.176184421367399 a40.04702202976459,40.04702202976459 0 0,0 -0.47130418432819426,-0.5005087112144216 l 13.978330741755958 -12.938134250208487" fill="#ffde14" stroke="none" /><path d="M 84.1078160697243 113.72728997021213 l -10.08838189107815 8.714103999591964 a34.33083109546956,34.33083109546956 0 0,0 -0.3814080730424825,-0.4492977510070853 l 10.236484527627745 -8.539639466135325" fill="#ff920d" stroke="none" /><path d="M 83.4222238831116 112.89097897827486 l -31.772746887462546 24.70668015543237 a61.24832281074078,61.24832281074078 0 0,0 -0.6382892541664973,-0.8355411230642567 l 32.19218811898334 -24.157618119127243" fill="#30ff33" stroke="none" /><path d="M 83.20337586046588 112.60449989151573 l -7.949507748963836 5.965458816428414 a30.938881845627282,30.938881845627282 0 0,0 -0.315131635386389,-0.4275365861846018 l 8.050741403934056 -5.828115920974932" fill="#ff6309" stroke="none" /><path d="M 82.78059297857968 112.02048342749411 l -10.94303257536207 7.639086616341448 a34.345621239845016,34.345621239845016 0 0,0 -0.3333328621016179,-0.4863426075795331 l 11.072555174279012 -7.450109273691864" fill="#ff920d" stroke="none" /><path d="M 82.576782715395 111.72311816256416 l -11.063711179457075 7.444158639280716 a34.334961676331176,34.334961676331176 0 0,0 -0.3248341797943068,-0.491840349937982 l 11.189869798172108 -7.253138411003673" fill="#ff920d" stroke="none" /><path d="M 81.99639281039703 110.81064883170644 l -16.32245297654044 9.8011640302463 a40.039046392064066,40.039046392064066 0 0,0 -0.3487711526877284,-0.5922896659207001 l 16.488297839357937 -9.519523196032042" fill="#ffde14" stroke="none" /><line stroke="#e1ed5e" stroke-width="0.3" x1="26.387840678322732" x2="22.057713659400548" y1="142.50000000000003" y2="145.00000000000006" /><path d="M 25.521815274538298 143.00000000000003 a86.0,86.0 0 0,1 -11.493303480769221,-40.785679425670985" fill="none" id="id81" stroke="none" /><text fill="#e1ed5e" style="font-size:6.75px; font-family:Arial;" text-anchor="middle"><textPath startOffset="21.40746469413373" xlink:href="#id81">September</textPath></text><path d="M 81.81346652052679 110.50000000000001 l -16.493572955241497 9.52256878560742 a40.04513757121482,40.04513757121482 0 0,0 -0.33860382503698055,-0.5982805144484742 l 16.654610145299856 -9.238031501059824" fill="#ffde14" stroke="none" /><path d="M 80.83023694016515 108.57439118712176 l -36.70282638898436 16.41670740268811 a61.2070360370595,61.2070360370595 0 0,0 -0.4207724850437059,-0.962809790458916 l 36.979232756045036 -15.784235542453343" fill="#30ff32" stroke="none" /><path d="M 80.68587082218212 108.24405325689762 l -14.013788122209363 5.981652838019691 a36.2370085058966,36.2370085058966 0 0,0 -0.23929221671806672,-0.5742142088505788 l 14.114406183463915 -5.740206119727832" fill="#ffac0f" stroke="none" /><path d="M 80.41425534168474 107.57618678355246 l -10.659817281995664 4.123446323632741 a32.429545663297986,32.429545663297986 0 0,0 -0.19638300696238709,-0.5209292576725152 l 10.729030972772486 -3.9398487857660816" fill="#ff780b" stroke="none" /><path d="M 80.16572619554312 106.89939002012753 l -18.01020239918113 6.26488329839761 a40.06872185548919,40.06872185548919 0 0,0 -0.2204057863462336,-0.6515905437909582 l 18.11509360709973 -5.95479108013249" fill="#ffdf14" stroke="none" /><path d="M 79.94057633289273 106.21446072829308 l -18.238883316330973 5.650452673927895 a40.09409542363909,40.09409542363909 0 0,0 -0.1980336725459751,-0.6591896889441828 l 18.333193308880578 -5.336525381392988" fill="#ffdf14" stroke="none" /><path d="M 79.83685265289637 105.86919833188381 l -9.443812942326643 2.7489563119067424 a30.83576960356576,30.83576960356576 0 0,0 -0.14357943094655443,-0.5095127482281039 l 9.489610865347771 -2.586435639775643" fill="#ff6109" stroke="none" /><path d="M 79.73907114497094 105.5222062557868 l -11.565996975592642 3.152363907401782 a32.987897407139734,32.987897407139734 0 0,0 -0.1442207613385578,-0.5476297217085135 l 11.618407217735932 -2.9533536813204657" fill="#ff7f0b" stroke="none" /><path d="M 79.64726062577567 105.17358676015961 l -18.511813969564564 4.705630721177889 a40.10052923161709,40.10052923161709 0 0,0 -0.163863123874797,-0.668617463837303 l 18.589864619955655 -4.3871574327324865" fill="#ffdf14" stroke="none" /><path d="M 79.2786578344484 103.40968896794605 l -39.65307676197621 6.5248986914177936 a61.18632602794691,61.18632602794691 0 0,0 -0.1616440985510466,-1.0378710683500005 l 39.759242352665524 -5.843239441136343" fill="#30ff32" stroke="none" /><path d="M 79.0935383218832 101.97986365728391 l -18.96017395786257 1.7955481866281242 a40.045004326670906,40.045004326670906 0 0,0 -0.05893552441860444,-0.6849201291376542 l 18.988203104978915 -1.469807010114808" fill="#ffde14" stroke="none" /><path d="M 79.03789590574601 101.26102812881392 l -10.836831668322917 0.6519168829393696 a31.856422810015637,31.856422810015637 0 0,0 -0.02815259871206062,-0.5461528939867875 l 10.84642585649155 -0.46579219557585133" fill="#ff700a" stroke="none" /><line stroke="#e1ed5e" stroke-width="0.3" x1="15.003131293944662" x2="10.003315487706104" y1="100.72959589197737" y2="100.7725132973878" /><path d="M 14.003168132696942 100.73817937305945 a86.0,86.0 0 0,1 10.791469493833604,-42.45332614584628" fill="none" id="id82" stroke="none" /><text fill="#e1ed5e" style="font-size:6.75px; font-family:Arial;" text-anchor="middle"><textPath startOffset="22.145653131862435" xlink:href="#id82">October</textPath></text><path d="M 79.00077361379809 99.81974689727619 l -47.597708864036875 -0.4085690847604219 a68.59946236884022,68.59946236884022 0 0,0 0.02021583167449064,-1.1774708463673045 l 47.58368160076372 1.2255868470967788" fill="#39ff8b" stroke="none" /><path d="M 79.00696218219943 99.45929381324524 l -11.429980752174565 -0.2943957592430103 a32.43377141883383,32.43377141883383 0 0,0 0.019113241580032095,-0.5564611742268819 l 11.423242823597683 0.49056319803403076" fill="#ff780b" stroke="none" /><path d="M 79.01933749520258 99.09900007780938 l -19.09726093933633 -0.8201185551915529 a40.11486253755623,40.11486253755623 0 0,0 0.035450861326914995,-0.6877372389683852 l 19.080368488552843 1.1478275875366502" fill="#ffdf14" stroke="none" /><path d="M 79.06263194458094 98.37931529534042 l -19.094898341055217 -1.478065896174957 a40.152018730375886,40.152018730375886 0 0,0 0.05909302096801343,-0.6867504777775458 l 19.06671169738946 1.8056374213281836" fill="#ffe015" stroke="none" /><path d="M 79.0935383218832 98.0201363427161 l -11.375604090775262 -1.077281534567393 a32.42650007372261,32.42650007372261 0 0,0 0.0572367989488596,-0.5537141087918915 l 11.355434899344738 1.2724001656421973" fill="#ff780b" stroke="none" /><path d="M 79.22317932658666 96.9465228501225 l -19.159724701848734 -2.8158197298156225 a40.36553359454501,40.36553359454501 0 0,0 0.10663902727942819,-0.6846990528104767 l 19.10856418243104 3.144306964557549" fill="#ffe315" stroke="none" /><path d="M 79.407916724674 95.88100663000787 l -7.891884445760477 -1.5785979142664868 a29.048217907099847,29.048217907099847 0 0,0 0.10200390880676968,-0.48812562947105337 l 7.8636228261293395 1.7138399950229493" fill="#ff4806" stroke="none" /><path d="M 80.05021161711548 93.44210830539832 l -38.32193780989338 -12.59718212851565 a61.33930979930531,61.33930979930531 0 0,0 0.3374087863099455,-0.9974891231130196 l 38.10004360201107 13.253172926102831" fill="#30ff34" stroke="none" /><path d="M 80.5471966667186 92.08871423366112 l -17.637859034546334 -7.173163720314027 a40.04070243139567,40.04070243139567 0 0,0 0.26441002827809357,-0.6344878127764106 l 17.51212316173176 7.474884042531701" fill="#ffde14" stroke="none" /><path d="M 80.68587082218212 91.75594674310238 l -2.966395151425503 -1.2661776973844208 a24.22532264366752,24.22532264366752 0 0,0 0.1665388469977379,-0.3810734733867121 l 2.944222422410788 1.3169132405469999" fill="#ff0000" stroke="none" /><path d="M 80.83023694016515 91.42560881287825 l -36.74204393402109 -16.434248911755944 a61.24999788500724,61.24999788500724 0 0,0 0.4375452957307912,-0.9561154355254023 l 36.45451417343525 17.06255332949602" fill="#30ff33" stroke="none" /><path d="M 81.29705330413844 90.45014215332179 l -17.023605281605338 -8.692374154777674 a40.11440569911992,40.11440569911992 0 0,0 0.3184165594242369,-0.6106057374930705 l 16.871880653206162 8.983326135375231" fill="#ffdf14" stroke="none" /><path d="M 81.46374523516351 90.13048839642627 l -16.81083995570513 -8.95082540208689 a40.045251780823904,40.045251780823904 0 0,0 0.3282845866615713,-0.6040066639937073 l 16.654710019428208 9.238086899555217" fill="#ffde14" stroke="none" /><line stroke="#e1ed5e" stroke-width="0.3" x1="26.387840678322718" x2="22.05771365940052" y1="57.49999999999999" y2="54.99999999999999" /><path d="M 25.521815274538284 56.99999999999999 a86.0,86.0 0 0,1 29.574782752854787,-30.34633250058573" fill="none" id="id83" stroke="none" /><text fill="#e1ed5e" style="font-size:6.75px; font-family:Arial;" text-anchor="middle"><textPath startOffset="21.40746469413373" xlink:href="#id83">November</textPath></text><path d="M 81.81346652052679 89.5 l -8.63439210190273 -4.985068604322321 a30.97013720864464,30.97013720864464 0 0,0 0.26977391887376356,-0.4581350924596766 l 8.547544472899187 5.132554865075571" fill="#ff6309" stroke="none" /><path d="M 81.99639281039701 89.18935116829357 l -16.33371303692122 -9.80792537297712 a40.0521804971079,40.0521804971079 0 0,0 0.3590049268081252,-0.586407567673387 l 16.1629401456577 10.08687005677505" fill="#ffde14" stroke="none" /><path d="M 82.18462484594161 88.88188828441811 l -16.15744972033352 -10.08344362530266 a40.04570861926021,40.04570861926021 0 0,0 0.3689588640062601,-0.580064616656257 l 15.98197316470137 10.359321916637589" fill="#ffde14" stroke="none" /><path d="M 82.37810715431573 88.57770195909679 l -9.601760985859446 -6.223745465848935 a32.44241327925398,32.44241327925398 0 0,0 0.30692926957244643,-0.46473003379236394 l 9.493507277366271 6.3876553779803595" fill="#ff780b" stroke="none" /><path d="M 82.78059297857968 87.97951657250589 l -16.41568825500615 -11.459425308592031 a41.01982141001129,41.01982141001129 0 0,0 0.40802006445468286,-0.5739313184080815 l 16.216553092021496 11.739533853709633" fill="#ffeb16" stroke="none" /><path d="M 82.98947788004972 87.6856937992154 l -10.87345571720736 -7.871543402264166 a34.42360736790964,34.42360736790964 0 0,0 0.3506257187921642,-0.47569112716063083 l 10.736727978831377 8.057040838693661" fill="#ff930d" stroke="none" /><path d="M 83.64595745247003 86.82634096563983 l -31.578779464674167 -25.437629392232672 a61.54987424857328,61.54987424857328 0 0,0 0.6698771207130366,-0.8171411667736629 l 31.1374555247225 25.97597284070483" fill="#30ff37" stroke="none" /><path d="M 83.8745106332314 86.54754324733833 l -4.41164148950323 -3.680348236010328 a26.74521920993539,26.74521920993539 0 0,0 0.29713357342247054,-0.35002260235992705 l 4.347813352573645 3.755537620819812" fill="#ff2603" stroke="none" /><path d="M 84.10781606972428 86.27271002978789 l -9.912985633707374 -8.562600889938679 a34.099061728783,34.099061728783 0 0,0 0.3864380676592068,-0.43969558353852467 l 9.764536502089575 8.731508751288505" fill="#ff8f0d" stroke="none" /><path d="M 84.34580500576568 86.00192230759919 l -14.195689492354973 -12.693873079029089 a40.043424427078676,40.043424427078676 0 0,0 0.46260127772258464,-0.5084798400332623 l 13.975690513790521 12.935690494620008" fill="#ffde14" stroke="none" /><path d="M 84.58840730492382 85.73525988315684 l -13.980146771573446 -12.939815140295817 a40.04949657129459,40.04949657129459 0 0,0 0.47133330663784045,-0.5005396380980611 l 13.755957631199335 13.17789623833839" fill="#ffde14" stroke="none" /><path d="M 85.34317274990677 84.96080404539775 l -28.04822319770702 -28.77994791444739 a61.186916110927136,61.186916110927136 0 0,0 0.7585065604155267,-0.7266321267655241 l 27.550044151426192 29.257192171518483" fill="#30ff32" stroke="none" /><path d="M 85.86807049272753 84.46653392183569 l -13.057162063354514 -14.352108385754105 a40.402899171647974,40.402899171647974 0 0,0 0.51703200119762,-0.46233320364844027 l 12.808865035333502 14.574137119285947" fill="#ffe315" stroke="none" /><path d="M 86.68645165197937 83.75963576809568 l -11.184429057528025 -13.64318488745747 a38.64165375513943,38.64165375513943 0 0,0 0.5166006916168918,-0.4161369489223569 l 10.948577595555887 13.833170130173228" fill="#ffcc13" stroke="none" /><path d="M 87.25179093698888 83.31218511350988 l -24.407823997421513 -31.950625114300895 a61.20676954797165,61.20676954797165 0 0,0 0.8404185265517147,-0.6306657301342017 l 23.855752481959048 32.3649098716991" fill="#30ff32" stroke="none" /><line stroke="#e1ed5e" stroke-width="0.3" x1="56.869717070023135" x2="54.33264160355391" y1="26.7553504044142" y2="22.446841604673864" /><path d="M 56.362301976729285 25.89364864446614 a86.0,86.0 0 0,1 42.16139366436587,-11.88097634709845" fill="none" id="id84" stroke="none" /><text fill="#e1ed5e" style="font-size:6.75px; font-family:Arial;" text-anchor="middle"><textPath startOffset="22.145653131862474" xlink:href="#id84">December</textPath></text></svg>