<?xml version="1.0" encoding="utf-8" ?>
<svg baseProfile="full" height="200mm" version="1.1" viewBox="0,0,200,200" width="200mm" xmlns="http://www.w3.org/2000/svg" xmlns:ev="http://www.w3.org/2001/xml-events" xmlns:xlink="http://www.w3.org/1999/xlink"><defs /><rect fill="#1a1a1a" height="200" width="200" x="0" y="0" /><text alignment-baseline="middle" fill="#e1ed5e" style="dominant-baseline: central; font-size:9.0px; font-family:Arial;" text-anchor="middle" x="100.0" y="100.0">2026</text><line stroke="#e1ed5e" stroke-width="0.3" x1="100.0" x2="100.0" y1="15.0" y2="10.0" /><path d="M 100.0 14.0 a86.0,86.0 0 0,1 42.46469731375804,11.215312516191453" fill="none" id="id97" stroke="none" /><text fill="#e1ed5e" style="font-size:6.75px; font-family:Arial;" text-anchor="middle"><textPath startOffset="22.20632615414155" xlink:href="#id97">January</textPath></text><path d="M 104.307194497241 79.44645832069477 l 12.754986575321631 -60.8656396554137 a83.18774616593934,83.18774616593934 0 0,0 1.3989694199890923,0.3057605298970245 l -13.80079871946425 60.63706562742081" fill="#4cdbff" stroke="none" /><path d="M 105.01212808612495 79.60689891045804 l 14.842032920391333 -60.38853607068502 a83.18569956163881,83.18569956163881 0 0,0 1.3875814830933373,0.3537254158310033 l -15.879323292169696 60.12410765868515" fill="#4cdbff" stroke="none" /><path d="M 106.74666289553966 80.11325718540242 l 19.987723298683306 -58.916640544326526 a83.21478615003114,83.21478615003114 0 0,0 1.3525097162396134,0.4718640827715674 l -20.998915018986192 58.563855608382745" fill="#4cdaff" stroke="none" /><path d="M 107.4271985657038 80.35727306442388 l 21.99706271037552 -58.17567584632174 a83.19549845495649,83.19549845495649 0 0,0 1.335156360741168,0.5180199250689668 l -22.995202236116356 57.78841321736222" fill="#4cdbff" stroke="none" /><path d="M 109.08828744355905 81.06846463323043 l 21.34739125260294 -44.46810193853809 a70.32669868649151,70.32669868649151 0 0,0 1.086811162860296,0.5332935176464887 l -22.109673682473666 44.094053260756766" fill="#39ff89" stroke="none" /><path d="M 109.73455568895987 81.39251694778311 l 23.044767087907925 -44.0497878621053 a70.71363093591539,70.71363093591539 0 0,0 1.0736853096135943,0.5735255083185746 l -23.79959744404983 43.64658362728497" fill="#39ff8e" stroke="none" /><line stroke="#e1ed5e" stroke-width="0.3" x1="143.23703022742887" x2="145.7803849466894" y1="26.81831364943548" y2="22.513508569990506" /><path d="M 143.74570117128098 25.957352633546492 a86.0,86.0 0 0,1 28.547481713284135,27.462654790039103" fill="none" id="id98" stroke="none" /><text fill="#e1ed5e" style="font-size:6.75px; font-family:Arial;" text-anchor="middle"><textPath startOffset="19.985693538727396" xlink:href="#id98">February</textPath></text><path d="M 111.2981086023043 82.29822771554956 l 33.5700399748315 -52.597228804577625 a83.39724402433873,83.39724402433873 0 0,0 1.2034340427661683,0.7827469771108351 l -34.47044104338195 52.011582903307264" fill="#4cd8ff" stroke="none" /><path d="M 111.90073688211348 82.69761687909136 l 35.251851257878165 -51.252375565232455 a83.20529734827416,83.20529734827416 0 0,0 1.1730713126908094,0.8218114205888465 l -36.128853710152626 50.637979301879675" fill="#4cdbff" stroke="none" /><path d="M 113.89432698308785 84.25364557470407 l 41.16755962962833 -46.65493949736955 a83.22098798124486,83.22098798124486 0 0,0 1.0659776842076685,0.95704528993662 l -41.96454830143199 45.93939519866363" fill="#4cdaff" stroke="none" /><path d="M 114.42810811169701 84.74124197986012 l 42.69737361039633 -45.15553161736841 a83.14569775031033,83.14569775031033 0 0,0 1.031468927880624,0.9922722913893997 l -43.46832578188938 44.413876239216705" fill="#4cdbff" stroke="none" /><path d="M 117.04232023915458 87.72973835380427 l 50.41911562195022 -36.3011451474646 a83.12777445810269,83.12777445810269 0 0,0 0.8260817844378642,1.1684341003060736 l -51.03651002619196 35.42788454682673" fill="#4cdbff" stroke="none" /><line stroke="#e1ed5e" stroke-width="0.3" x1="172.23445277983987" x2="176.4835382374775" y1="55.19839476539836" y2="52.563006222186495" /><path d="M 173.08426987136738 54.67131705675599 a86.0,86.0 0 0,1 12.851231095245387,41.99856678651699" fill="none" id="id99" stroke="none" /><text fill="#e1ed5e" style="font-size:6.75px; font-family:Arial;" text-anchor="middle"><textPath startOffset="22.20632615414155" xlink:href="#id99">March</textPath></text><path d="M 118.21658344932153 89.55222093294921 l 34.45052467622474 -19.758450950064574 a60.71441847003777,60.71441847003777 0 0,0 0.5121473950162267,0.9110530687918297 l -34.785529712533396 19.16251437133795" fill="#54ff2b" stroke="none" /><path d="M 118.56541770881063 90.18545643968196 l 55.00854082154118 -29.080073960648647 a83.22210431086334,83.22210431086334 0 0,0 0.658606128049062,1.2722174092705754 l -55.50095638275037 28.128883829117726" fill="#4cdaff" stroke="none" /><path d="M 119.34039704204932 91.81776055985345 l 57.24542688051674 -24.218519845865465 a83.15766728455282,83.15766728455282 0 0,0 0.5463787930667355,1.3230995857882148 l -57.65382736046967 23.229545689623947" fill="#4cdbff" stroke="none" /><path d="M 120.18372546131832 94.20196356495316 l 59.687044326258025 -17.14587618460881 a83.10092052894728,83.10092052894728 0 0,0 0.38310802311025716,1.3782433950339197 l -59.97333911993465 16.115921486155937" fill="#4cdcff" stroke="none" /><path d="M 120.37134235888165 94.90015583598534 l 42.266922181619435 -10.581272093972443 a64.57127528353689,64.57127528353689 0 0,0 0.2606441042558659,1.0805380831057538 l -42.44279908613612 9.852148779207281" fill="#30ff3a" stroke="none" /><path d="M 120.73433829027371 96.67025291283417 l 61.41248721116356 -9.862289673498003 a83.199343590309,83.199343590309 0 0,0 0.21490828854728683,1.415977107027265 l -61.57315139315015 8.803713454078656" fill="#4cdbff" stroke="none" /><path d="M 120.98425023603335 99.18683210126433 l 62.95275070810006 -2.4395036962070047 a84.0,84.0 0 0,0 0.04355322217741975,1.4453194103000038 l -62.98541562473312 1.355514138482002" fill="#4dd2ff" stroke="none" /><line stroke="#e1ed5e" stroke-width="0.3" x1="184.98032266829074" x2="189.97916517819016" y1="98.17113171792111" y2="98.06355123074" /><path d="M 185.9800911702706 98.14961562048488 a86.0,86.0 0 0,1 -9.607161424134198,41.387399972396054" fill="none" id="id100" stroke="none" /><text fill="#e1ed5e" style="font-size:6.75px; font-family:Arial;" text-anchor="middle"><textPath startOffset="21.466115282336823" xlink:href="#id100">April</textPath></text><path d="M 120.89721153311464 102.0752229133903 l 10.641474651703067 1.0567645350424808 a31.693817561814043,31.693817561814043 0 0,0 -0.05858481211405545,0.5424226002489695 l -10.621707538087959 -1.2397834571762416" fill="#ff0000" stroke="none" /><line stroke="#e1ed5e" stroke-width="0.3" x1="174.80103733775053" x2="179.2010983576182" y1="140.37084112569926" y2="142.7455964860345" /><path d="M 175.68104954172406 140.8457921977663 a86.0,86.0 0 0,1 -30.038265399797805,32.042727171017184" fill="none" id="id101" stroke="none" /><text fill="#e1ed5e" style="font-size:6.75px; font-family:Arial;" text-anchor="middle"><textPath startOffset="22.206326154141568" xlink:href="#id101">May</textPath></text><line stroke="#e1ed5e" stroke-width="0.3" x1="143.8653032363475" x2="146.44561519142675" y1="172.8068346515853" y2="177.08958963109032" /><path d="M 144.38136562736335 173.6633856474863 a86.0,86.0 0 0,1 -40.68145358897372,12.25698825130547" fill="none" id="id102" stroke="none" /><text fill="#e1ed5e" style="font-size:6.75px; font-family:Arial;" text-anchor="middle"><textPath startOffset="21.466115282336833" xlink:href="#id102">June</textPath></text><line stroke="#e1ed5e" stroke-width="0.3" x1="102.19456741930631" x2="102.32365962044197" y1="184.97166512339345" y2="189.96999836594603" /><path d="M 102.22038585953345 185.97133177190398 a86.0,86.0 0 0,1 -42.740103519485714,-10.115201625700543" fill="none" id="id103" stroke="none" /><text fill="#e1ed5e" style="font-size:6.75px; font-family:Arial;" text-anchor="middle"><textPath startOffset="22.20632615414155" xlink:href="#id103">July</textPath></text><line stroke="#e1ed5e" stroke-width="0.3" x1="58.666819895761336" x2="56.23545636021788" y1="174.27360380694188" y2="178.64263932499728" /><path d="M 58.180547188652646 175.14741091055294 a86.0,86.0 0 0,1 -31.652253787137756,-30.449443065178592" fill="none" id="id104" stroke="none" /><text fill="#e1ed5e" style="font-size:6.75px; font-family:Arial;" text-anchor="middle"><textPath startOffset="22.20632615414155" xlink:href="#id104">August</textPath></text><line stroke="#e1ed5e" stroke-width="0.3" x1="26.63291911575756" x2="22.317208475507996" y1="142.92168965132927" y2="145.44649492493687" /><path d="M 25.769776987707644 143.4266507060508 a86.0,86.0 0 0,1 -11.730757126820373,-40.83630448921669" fill="none" id="id105" stroke="none" /><text fill="#e1ed5e" style="font-size:6.75px; font-family:Arial;" text-anchor="middle"><textPath startOffset="21.46611528233685" xlink:href="#id105">September</textPath></text><line stroke="#e1ed5e" stroke-width="0.3" x1="15.007084014347285" x2="10.007500721073583" y1="101.09737516637583" y2="101.16192664675087" /><path d="M 14.007167355692545 101.11028546245083 a86.0,86.0 0 0,1 10.666146001902534,-42.60595125391555" fill="none" id="id106" stroke="none" /><text fill="#e1ed5e" style="font-size:6.75px; font-family:Arial;" text-anchor="middle"><textPath startOffset="22.20632615414155" xlink:href="#id106">October</textPath></text><line stroke="#e1ed5e" stroke-width="0.3" x1="26.266209847984243" x2="21.928928074336255" y1="57.711370442889674" y2="55.22380399835377" /><path d="M 25.398753493254645 57.213857153982495 a86.0,86.0 0 0,1 29.58750427330803,-30.492523968695096" fill="none" id="id107" stroke="none" /><text fill="#e1ed5e" style="font-size:6.75px; font-family:Arial;" text-anchor="middle"><textPath startOffset="21.46611528233685" xlink:href="#id107">November</textPath></text><line stroke="#e1ed5e" stroke-width="0.3" x1="56.762969772571076" x2="54.21961505331055" y1="26.818313649435495" y2="22.513508569990535" /><path d="M 56.25429882871897 25.957352633546506 a86.0,86.0 0 0,1 42.265352541879196,-11.944610805530505" fill="none" id="id108" stroke="none" /><text fill="#e1ed5e" style="font-size:6.75px; font-family:Arial;" text-anchor="middle"><textPath startOffset="22.20632615414155" xlink:href="#id108">December</textPath></text></svg>