<?xml version="1.0" encoding="utf-8" ?>
<svg baseProfile="full" height="200mm" version="1.1" viewBox="0,0,200,200" width="200mm" xmlns="http://www.w3.org/2000/svg" xmlns:ev="http://www.w3.org/2001/xml-events" xmlns:xlink="http://www.w3.org/1999/xlink"><defs /><rect fill="#1a1a1a" height="200" width="200" x="0" y="0" /><text alignment-baseline="middle" fill="#e1ed5e" style="dominant-baseline: central; font-size:9.0px; font-family:Arial;" text-anchor="middle" x="100.0" y="100.0">2025</text><line stroke="#e1ed5e" stroke-width="0.3" x1="100.0" x2="100.0" y1="15.0" y2="10.0" /><path d="M 100.0 14.0 a86.0,86.0 0 0,1 42.46469731375804,11.215312516191453" fill="none" id="id85" stroke="none" /><text fill="#e1ed5e" style="font-size:6.75px; font-family:Arial;" text-anchor="middle"><textPath startOffset="22.20632615414155" xlink:href="#id85">January</textPath></text><path d="M 100.0 79.0 l 0.0 -29.879994857103114 a50.879994857103114,50.879994857103114 0 0,0 0.8758154726823529,0.007538420278189818 l -0.5143349934098246 29.875567813433484" fill="#9aff23" stroke="none" /><path d="M 103.59715602781102 79.31037775812273 l 2.539777741677433 -14.607940730780758 a35.827083441160084,35.827083441160084 0 0,0 0.6066802699204761,0.11086694152527211 l -2.79085313270081 14.562058307904747" fill="#ffa90f" stroke="none" /><path d="M 103.95276090670814 79.375362276772 l 5.867029305758977 -30.612869535692326 a52.17001466287679,52.17001466287679 0 0,0 0.8805145531007685,0.17662293590117017 l -6.393110268326871 30.507342643713947" fill="#8bff24" stroke="none" /><path d="M 105.01212808612495 79.60689891045804 l 2.121629087112974 -8.632380438916197 a29.889280174764817,29.889280174764817 0 0,0 0.49856900803919124,0.12709634125122649 l -2.2699069838371906 8.594581101496102" fill="#ff5708" stroke="none" /><path d="M 105.71112130821622 79.79150937346287 l 4.134437054761154 -14.629479564188134 a36.20247486690178,36.20247486690178 0 0,0 0.5982196629255566,0.174636723871228 l -4.385646935410138 14.556144511398202" fill="#ffae10" stroke="none" /><path d="M 106.40334571778207 80.00007090966166 l 5.915392006890441 -18.475875877015937 a40.399738452311226,40.399738452311226 0 0,0 0.6604725803615227,0.2177474255389541 l -6.232547409494381 18.371314727217747" fill="#ffe515" stroke="none" /><path d="M 107.4271985657038 80.35727306442388 l 3.2160679306563527 -8.505541303265243 a30.09325716100382,30.09325716100382 0 0,0 0.48294925158345775,0.18737680654758568 l -3.3620003472394773 8.448921792827111" fill="#ff5a08" stroke="none" /><path d="M 108.43124777332544 80.76684994638697 l 12.502788025233254 -28.521045122006004 a52.14112591502463,52.14112591502463 0 0,0 0.8189083661928709,0.36742031330482244 l -12.991878509892906 28.30160447818465" fill="#8cff24" stroke="none" /><line stroke="#e1ed5e" stroke-width="0.3" x1="143.23703022742887" x2="145.7803849466894" y1="26.81831364943548" y2="22.513508569990506" /><path d="M 143.74570117128098 25.957352633546492 a86.0,86.0 0 0,1 28.547481713284135,27.462654790039103" fill="none" id="id86" stroke="none" /><text fill="#e1ed5e" style="font-size:6.75px; font-family:Arial;" text-anchor="middle"><textPath startOffset="19.985693538727396" xlink:href="#id86">February</textPath></text><path d="M 110.99172775467656 82.1063720568725 l 7.739358492016248 -12.599038519281276 a35.78625853548751,35.78625853548751 0 0,0 0.522105915406095,0.3269426763292079 l -7.955083559794606 12.463951501629124" fill="#ffa90f" stroke="none" /><path d="M 111.2981086023043 82.29822771554956 l 8.018641865218502 -12.563534067968579 a35.904395514063694,35.904395514063694 0 0,0 0.5181055123830605,0.33699023729637 l -8.233714403385841 12.423644906512681" fill="#ffaa0f" stroke="none" /><path d="M 111.60114157652 82.49532879139004 l 5.717945297933187 -8.62766407675907 a31.350434090005848,31.350434090005848 0 0,0 0.4472591848420414,0.3019913981273269 l -5.86560917718177 8.527960766333074" fill="#ff6c09" stroke="none" /><path d="M 112.19680574252982 82.90503203632743 l 5.3915496697635765 -7.556762879134003 a30.282966823865383,30.282966823865383 0 0,0 0.4217331182067744,0.30640704584553174 l -5.520828104324139 7.462836598471797" fill="#ff5d08" stroke="none" /><path d="M 113.06298171725822 83.55741782278167 l 22.951013313137768 -28.88880430362466 a57.89596219361883,57.89596219361883 0 0,0 0.7749694385459505,0.626638057125525 l -23.44488615024821 28.489460149235008" fill="#4eff2c" stroke="none" /><path d="M 114.16331599549186 84.49514656593476 l 10.079827954755698 -11.034580823362704 a35.9453974702849,35.9453974702849 0 0,0 0.45324085066629044,0.4212379747219682 l -10.268276689216835 10.859438262566094" fill="#ffab0f" stroke="none" /><path d="M 115.19652480421416 85.50635884689758 l 10.685083028132699 -10.190866734078195 a35.7656616549964,35.7656616549964 0 0,0 0.42106858630776595,0.44916660971497124 l -10.858918936410927 10.00543070748517" fill="#ffa90f" stroke="none" /><path d="M 115.4437574822437 85.77008943001954 l 10.858072597492885 -10.004650889029106 a35.764510826430275,35.764510826430275 0 0,0 0.4132612377280928,0.4563333805052395 l -11.028677475837014 9.816264721254317" fill="#ffa90f" stroke="none" /><path d="M 115.9244219780498 86.31012108654704 l 11.19341865547784 -9.622738346942706 a35.76108784915668,35.76108784915668 0 0,0 0.3972705831125271,0.4702430648129486 l -11.357399852077485 9.42863633250065" fill="#ffa90f" stroke="none" /><path d="M 116.38621287248628 86.86637796730983 l 7.147306839553573 -5.728598017908883 a30.15973964201597,30.15973964201597 0 0,0 0.3211953667278729,0.4078854978442192 l -7.244856286875409 5.6047201261116255" fill="#ff5b08" stroke="none" /><path d="M 116.82858285166822 87.43820079747576 l 17.761366484929805 -13.258081284248771 a43.163999159712475,43.163999159712475 0 0,0 0.43932192446957,0.5992346112565845 l -17.986951021913 12.950384229320692" fill="#f6ff19" stroke="none" /><path d="M 117.04232023915458 87.72973835380427 l 7.190589641892502 -5.177136390955575 a29.860435689549824,29.860435689549824 0 0,0 0.2967379093127042,0.4197147287667546 l -7.278640171009089 5.0525951618570275" fill="#ff5708" stroke="none" /><path d="M 117.45458315368197 88.32363383020206 l 12.56159646999257 -8.403168312268418 a36.113138110903435,36.113138110903435 0 0,0 0.3411889575708187,0.5196541900092593 l -12.704382062921313 8.185696058281485" fill="#ffad10" stroke="none" /><path d="M 117.65298651832404 88.62581576622439 l 7.000769662510481 -4.5107406521251425 a29.328118460868666,29.328118460868666 0 0,0 0.26978014955568397,0.4267274087540398 l -7.077377408312121 4.389565595656896" fill="#ff4f07" stroke="none" /><line stroke="#e1ed5e" stroke-width="0.3" x1="172.23445277983987" x2="176.4835382374775" y1="55.19839476539836" y2="52.563006222186495" /><path d="M 173.08426987136738 54.67131705675599 a86.0,86.0 0 0,1 12.851231095245387,41.99856678651699" fill="none" id="id87" stroke="none" /><text fill="#e1ed5e" style="font-size:6.75px; font-family:Arial;" text-anchor="middle"><textPath startOffset="22.20632615414155" xlink:href="#id87">March</textPath></text><path d="M 118.03404312379186 89.2402003453031 l 10.7370623377452 -6.4061419195408185 a33.502926135026335,33.502926135026335 0 0,0 0.29122071632782315,0.49779060478642645 l -10.845742728543351 6.220371902400497" fill="#ff8a0c" stroke="none" /><path d="M 118.3937258080291 89.86733742301442 l 27.274341260170235 -15.024780725948704 a52.138942291591476,52.138942291591476 0 0,0 0.42627781460867203,0.7898280500898458 l -27.52892717399737 14.5530716925264" fill="#8cff24" stroke="none" /><path d="M 119.04729006885535 91.15688171328212 l 44.67526452095961 -20.741462287868547 a70.2553298421276,70.2553298421276 0 0,0 0.49980873806617565,1.1012623021699923 l -45.025675575989126 19.969377976856492" fill="#3bff9f" stroke="none" /><path d="M 119.61058180528143 92.48833698450437 l 8.577156095879207 -3.2854051380666904 a30.184851311497255,30.184851311497255 0 0,0 0.18167746202542628,0.4868052738768527 l -8.632438146406258 3.1372767271605047" fill="#ff5b08" stroke="none" /><path d="M 119.7369772167798 92.82701384747503 l 8.624617250963558 -3.1344343884328127 a30.17652993571145,30.17652993571145 0 0,0 0.17322322455240816,0.489725382299942 l -8.677293556325775 2.985511379706256" fill="#ff5b08" stroke="none" /><path d="M 119.97218684219823 93.5106431181261 l 29.621040032303537 -9.624459329398825 a52.14540463661663,52.14540463661663 0 0,0 0.2700250857580959,0.8560533128619341 l -29.782320601829838 9.113155850110472" fill="#8cff24" stroke="none" /><path d="M 120.37134235888165 94.90015583598534 l 8.64283540379544 -2.1636823395375457 a29.909552462583434,29.909552462583434 0 0,0 0.12073090512882428,0.5005075452290284 l -8.678799109185084 2.0145895626491113" fill="#ff5708" stroke="none" /><path d="M 120.67395015179393 96.31383870115 l 62.02185045538181 -11.058483896549978 a84.0,84.0 0 0,0 0.2415525539191079,1.4256568467366484 l -62.20301487082114 9.98924126149749" fill="#4dd2ff" stroke="none" /><path d="M 120.96714384426684 98.82574320788733 l 14.773612831513958 -0.8273904800911495 a35.79676353470648,35.79676353470648 0 0,0 0.029159688618932218,0.615514939582158 l -14.785666128366387 0.5729644338859917" fill="#ffa90f" stroke="none" /><line stroke="#e1ed5e" stroke-width="0.3" x1="184.98032266829074" x2="189.97916517819016" y1="98.17113171792111" y2="98.06355123074" /><path d="M 185.9800911702706 98.14961562048488 a86.0,86.0 0 0,1 -9.607161424134198,41.387399972396054" fill="none" id="id88" stroke="none" /><text fill="#e1ed5e" style="font-size:6.75px; font-family:Arial;" text-anchor="middle"><textPath startOffset="21.466115282336823" xlink:href="#id88">April</textPath></text><path d="M 120.99824983174949 100.27111621757518 l 10.34694543997519 0.13359326294429386 a31.347807840201106,31.347807840201106 0 0,0 -0.01161053734969124,0.5394960479096745 l -10.343112839940492 -0.31167912664408315" fill="#ff6c09" stroke="none" /><path d="M 120.9764740272857 100.99374915477107 l 14.750755797233031 0.6988091080830459 a35.767299372571266,35.767299372571266 0 0,0 -0.03442798281989757,0.6147347606599637 l -14.736541463525604 -0.9526155850784328" fill="#ffa90f" stroke="none" /><path d="M 120.95626037817324 101.35467743843564 l 10.325297994761344 0.6674591738321991 a31.346848816396005,31.346848816396005 0 0,0 -0.03944245813132932,0.5381610040231039 l -10.312278977965677 -0.8450933143520732" fill="#ff6c09" stroke="none" /><path d="M 120.81339534386255 102.79330883721812 l 14.630989253982214 1.963585032868901 a35.76216490666087,35.76216490666087 0 0,0 -0.08713357643571905,0.6094120306491378 l -14.595021626529894 -2.2151425354984484" fill="#ffa90f" stroke="none" /><path d="M 120.76222939487914 103.15116336523771 l 2.920816050472128 0.4433034795924248 a23.954265454510537,23.954265454510537 0 0,0 -0.06538173673412086,0.407132137055112 l -2.9127525593767185 -0.49351484634074166" fill="#ff0000" stroke="none" /><path d="M 120.5718875245553 104.21870165774334 l 10.124308662871709 2.0762041250993764 a31.335001183849897,31.335001183849897 0 0,0 -0.1129044279117484,0.5274518993842344 l -10.087070196235516 -2.25016984389978" fill="#ff6c09" stroke="none" /><path d="M 120.13307415673323 105.97154293290107 l 60.33885107119288 17.896722422444846 a83.93702902153575,83.93702902153575 0 0,0 -0.42277573646924965,1.3816555684219098 l -60.02184856221749 -18.93270496341881" fill="#4dd3ff" stroke="none" /><path d="M 119.26925614724726 108.34839909993367 l 6.775190512924633 2.9353491358336306 a28.383730834453758,28.383730834453758 0 0,0 -0.19808994297033644,0.4466405271804304 l -6.723659485223023 -3.0515379995067486" fill="#ff4206" stroke="none" /><line stroke="#e1ed5e" stroke-width="0.3" x1="174.80103733775053" x2="179.2010983576182" y1="140.37084112569926" y2="142.7455964860345" /><path d="M 175.68104954172406 140.8457921977663 a86.0,86.0 0 0,1 -30.038265399797805,32.042727171017184" fill="none" id="id89" stroke="none" /><text fill="#e1ed5e" style="font-size:6.75px; font-family:Arial;" text-anchor="middle"><textPath startOffset="22.206326154141568" xlink:href="#id89">May</textPath></text><path d="M 118.48025628344425 109.97397251340804 l 9.19169607938069 4.960847005648621 a31.444964328764136,31.444964328764136 0 0,0 -0.2611782658520116,0.47411441687695716 l -9.104941404077168 -5.118331940923384" fill="#ff6d0a" stroke="none" /><path d="M 118.30583269289576 110.29060199501025 l 7.761458671821487 4.363094726820716 a29.903754057115666,29.903754057115666 0 0,0 -0.25610145117725874,0.4465344669831126 l -7.685205224491849 -4.496049039662143" fill="#ff5708" stroke="none" /><path d="M 118.12598468904814 110.60418214915192 l 7.687255556638398 4.497248538388488 a29.90612948530984,29.90612948530984 0 0,0 -0.2637708149773579,0.44209505797098236 l -7.608703865962813 -4.628905690245575" fill="#ff5708" stroke="none" /><path d="M 117.94076556474637 110.91462005526583 l 7.680967475247867 4.672868688163479 a29.990715384919838,29.990715384919838 0 0,0 -0.27210913154672717,0.4387265614870146 l -7.599393704033177 -4.804391581015767" fill="#ff5908" stroke="none" /><path d="M 116.71984013943494 112.70617746262583 l 11.747473964328028 8.927447133676546 a35.75474353783062,35.75474353783062 0 0,0 -0.37660502488973596,0.48681276153822606 l -11.592062122220224 -9.128337889328025" fill="#ffa80f" stroke="none" /><path d="M 116.498646956653 112.99209946851258 l 7.091536469818976 5.584333517926455 a30.026332053620088,30.026332053620088 0 0,0 -0.3232578973341283,0.40331393009825917 l -6.994360660429994 -5.705575281602964" fill="#ff5908" stroke="none" /><path d="M 115.80600337817218 113.82643327865902 l 7.796158573318244 6.81975473272963 a31.35804726359712,31.35804726359712 0 0,0 -0.3588871024816528,0.40321346417418863 l -7.677612621188253 -6.9529423666446855" fill="#ff6c09" stroke="none" /><path d="M 115.56566222782051 114.09645910891815 l 9.7075146055043 8.791247084954737 a34.09663564144641,34.09663564144641 0 0,0 -0.3977187321730185,0.4316451333702197 l -9.55474946533556 -8.95704347312629" fill="#ff920d" stroke="none" /><path d="M 115.07121518719521 114.62390073753431 l 10.637423539007832 10.321704255787475 a35.822022746311625,35.822022746311625 0 0,0 -0.4332065955190327,0.43883599411092966 l -10.458176318433264 -10.503280743879069" fill="#ffa90f" stroke="none" /><path d="M 114.81725581225074 114.88116024355365 l 7.295372186216448 7.326835948238954 a31.339486464415298,31.339486464415298 0 0,0 -0.3855503724095164,0.3773421869993741 l -7.168171861431137 -7.4513282381609" fill="#ff6c09" stroke="none" /><path d="M 114.0293411484842 115.62618273729858 l 6.06104748840298 6.750925409170947 a30.072557001026006,30.072557001026006 0 0,0 -0.38816174013241106,0.3425076048751981 l -5.9439433953639815 -6.854256155818434" fill="#ff5a08" stroke="none" /><path d="M 113.48314897796784 116.09983520530334 l 4.737983591131607 5.657488109587521 a28.379407850224606,28.379407850224606 0 0,0 -0.37721621262909416,0.3104232622447382 l -4.639897249957821 -5.7382064906894374" fill="#ff4106" stroke="none" /><path d="M 113.20401910651253 116.32954008644616 l 6.501251595043228 8.040161686904002 a31.339752040238253,31.339752040238253 0 0,0 -0.4224039045278832,0.33558320844467826 l -6.361890197797994 -8.150878809353806" fill="#ff6c09" stroke="none" /><path d="M 112.92097659922987 116.55440617244103 l 6.359030615303265 8.147215100984877 a31.335104463336606,31.335104463336606 0 0,0 -0.4280543457231701,0.3282138191268376 l -6.217847541086601 -8.255468261939084" fill="#ff6c09" stroke="none" /><line stroke="#e1ed5e" stroke-width="0.3" x1="143.8653032363475" x2="146.44561519142675" y1="172.8068346515853" y2="177.08958963109032" /><path d="M 144.38136562736335 173.6633856474863 a86.0,86.0 0 0,1 -40.68145358897372,12.25698825130547" fill="none" id="id90" stroke="none" /><text fill="#e1ed5e" style="font-size:6.75px; font-family:Arial;" text-anchor="middle"><textPath startOffset="21.466115282336833" xlink:href="#id90">June</textPath></text><path d="M 110.5260780823613 118.17145234162733 l 5.182420246101784 8.94655177165451 a31.339161871742803,31.339161871742803 0 0,0 -0.46911924657326154,0.2663781514645608 l -5.027652232607323 -9.0344330889137" fill="#ff6c09" stroke="none" /><path d="M 108.92500713936063 119.00905698771935 l 4.406425038149397 9.385088813306636 a31.368050619594953,31.368050619594953 0 0,0 -0.49073373994878905,0.22527179104048423 l -4.244223302433189 -9.459547674681195" fill="#ff6c0a" stroke="none" /><path d="M 108.59647513512805 119.15986991738527 l 4.231400966772134 9.430969184143956 a31.336727426699085,31.336727426699085 0 0,0 -0.4940448845173998,0.2165747587316138 l -4.06843540759698 -9.502408496170025" fill="#ff6c09" stroke="none" /><path d="M 106.2309692047433 120.05430185196036 l 3.0694035293722632 9.878839528952492 a31.344694701387624,31.344694701387624 0 0,0 -0.5166277740324039,0.15565571035371084 l -2.8989007808996137 -9.930210608411928" fill="#ff6c09" stroke="none" /><path d="M 105.53697534728816 120.25689768951611 l 2.0214875190998933 7.395565861620803 a28.666864170144642,28.666864170144642 0 0,0 -0.47711157152810496,0.12600950244016598 l -1.893885504760291 -7.4292667133645525" fill="#ff4606" stroke="none" /><path d="M 104.13013068566511 120.58985236759428 l 2.033577931038552 10.137952661742172 a31.339899582362115,31.339899582362115 0 0,0 -0.5298418718004413,0.10154545576483771 l -1.858768444666406 -10.171455315855479" fill="#ff6c09" stroke="none" /><path d="M 103.7750983002368 120.6578951692458 l 1.383672630321762 7.571660887333321 a28.697051288686776,28.697051288686776 0 0,0 -0.4866897301040538,0.08461724800243223 l -1.253133928745658 -7.594356713856759" fill="#ff4606" stroke="none" /><path d="M 101.62511606390274 120.93702456842531 l 0.6031594476361385 7.770746012754641 a28.794119251975484,28.794119251975484 0 0,0 -0.49448722251593763,0.034102733999625476 l -0.4693094643412705 -7.779977091270552" fill="#ff4706" stroke="none" /><path d="M 101.26447882468166 120.96189622390904 l 0.6223096232558541 10.31633704511676 a31.335089709124215,31.335089709124215 0 0,0 -0.5386829172537062,0.027843753766476034 l -0.4446386375886683 -10.325520605645439" fill="#ff6c09" stroke="none" /><line stroke="#e1ed5e" stroke-width="0.3" x1="102.19456741930631" x2="102.32365962044197" y1="184.97166512339345" y2="189.96999836594603" /><path d="M 102.22038585953345 185.97133177190398 a86.0,86.0 0 0,1 -42.740103519485714,-10.115201625700543" fill="none" id="id91" stroke="none" /><text fill="#e1ed5e" style="font-size:6.75px; font-family:Arial;" text-anchor="middle"><textPath startOffset="22.20632615414155" xlink:href="#id91">July</textPath></text><path d="M 99.09653310690486 120.98055641714683 l -0.3351109439997697 7.782038412613022 a28.789250361888044,28.789250361888044 0 0,0 -0.4949172800987079,-0.02558157023448476 l 0.4690162925119665 -7.7751170356163355" fill="#ff4706" stroke="none" /><path d="M 96.58105272829116 120.7198165907248 l -1.4979068230001973 9.077751768615865 a30.200505530839,30.200505530839 0 0,0 -0.5121876717558264,-0.08905039199303647 l 1.6539434662280734 -9.050622798101823" fill="#ff5c08" stroke="none" /><path d="M 96.22490169976321 120.6578951692458 l -1.32733216813999 7.263357561439852 a28.38364230917944,28.38364230917944 0 0,0 -0.4798624874367494,-0.09196678779959641 l 1.4521622701484345 -7.2394335752917875" fill="#ff4206" stroke="none" /><path d="M 94.11515582081647 120.15858648285463 l -2.068767495601538 7.086581598969052 a28.382373446914226,28.382373446914226 0 0,0 -0.46780236832188926,-0.14094501613404312 l 2.1904448383636725 -7.0499212137292835" fill="#ff4106" stroke="none" /><path d="M 93.76903079525671 120.05430185196036 l -2.194612469647181 7.063334686500666 a28.396419457105875,28.396419457105875 0 0,0 -0.4655371949964695,-0.14905030865779528 l 2.315871009734591 -7.0245115311831645" fill="#ff4206" stroke="none" /><line stroke="#e1ed5e" stroke-width="0.3" x1="58.666819895761336" x2="56.23545636021788" y1="174.27360380694188" y2="178.64263932499728" /><path d="M 58.180547188652646 175.14741091055294 a86.0,86.0 0 0,1 -31.652253787137756,-30.449443065178592" fill="none" id="id92" stroke="none" /><text fill="#e1ed5e" style="font-size:6.75px; font-family:Arial;" text-anchor="middle"><textPath startOffset="22.20632615414155" xlink:href="#id92">August</textPath></text><path d="M 89.4739219176387 118.17145234162733 l -3.701611476854539 6.390191675624919 a28.38488166301988,28.38488166301988 0 0,0 -0.4206803405042436,-0.24854536026043167 l 3.811059688387165 -6.3255277430707375" fill="#ff4206" stroke="none" /><path d="M 87.36589467227662 116.77436683061367 l -4.4915923028547775 5.96351027534322 a28.46577900953333,28.46577900953333 0 0,0 -0.38885781994705915,-0.298159594587318 l 4.593578851295323 -5.885311338928535" fill="#ff4306" stroke="none" /><path d="M 85.44109423537348 115.13401014063109 l -5.1622289587457395 5.3661467882934435 a28.446082135997774,28.446082135997774 0 0,0 -0.3499546035503378,-0.3425042352544365 l 5.2538335146718715 -5.276492450116438" fill="#ff4206" stroke="none" /><path d="M 85.18274418774928 114.88116024355367 l -5.214263848670448 5.2367521265361265 a28.390001374717883,28.390001374717883 0 0,0 -0.34332890494266216,-0.34779036807372254 l 5.303633378668644 -5.146221264481739" fill="#ff4206" stroke="none" /><path d="M 83.72743513129214 113.27417163493432 l -5.72868069169358 4.673110315234111 a28.392952217195123,28.392952217195123 0 0,0 -0.3056732342947638,-0.3813743591911041 l 5.808271838043205 -4.573808122464747" fill="#ff4206" stroke="none" /><path d="M 83.50135304334701 112.99209946851258 l -5.890468191483143 4.638534836276275 a28.497574337225558,28.497574337225558 0 0,0 -0.3001651985340769,-0.38800398178124884 l 5.969440207235289 -4.536452860381773" fill="#ff4306" stroke="none" /><line stroke="#e1ed5e" stroke-width="0.3" x1="26.63291911575756" x2="22.317208475507996" y1="142.92168965132927" y2="145.44649492493687" /><path d="M 25.769776987707644 143.4266507060508 a86.0,86.0 0 0,1 -11.730757126820373,-40.83630448921669" fill="none" id="id93" stroke="none" /><text fill="#e1ed5e" style="font-size:6.75px; font-family:Arial;" text-anchor="middle"><textPath startOffset="21.46611528233685" xlink:href="#id93">September</textPath></text><path d="M 81.02952815118164 109.00673069616217 l -6.687236305328357 3.1749414028118967 a28.40266048894523,28.40266048894523 0 0,0 -0.20588599408085728,-0.4434601147722704 l 6.740896916249041 -3.0593612207607994" fill="#ff4206" stroke="none" /><path d="M 80.87730276802145 108.67885076344099 l -6.854868176883286 3.111087164562897 a28.527820472617236,28.527820472617236 0 0,0 -0.19909554397369375,-0.4489078919720997 l 6.90740480558826 -2.9926309360981014" fill="#ff4406" stroke="none" /><path d="M 79.97269907076064 106.31721596034903 l -7.139431499393003 2.2519924564541425 a28.486184085263424,28.486184085263424 0 0,0 -0.14347979188965795,-0.46890026158060394 l 7.1771380637887905 -2.128765222321491" fill="#ff4306" stroke="none" /><path d="M 79.35854240842038 103.8639653848113 l -8.707069169146045 1.6299146377367488 a29.858311082966217,29.858311082966217 0 0,0 -0.09021981256940179,-0.5060006213905881 l 8.733835424054636 -1.4797952656129472" fill="#ff5708" stroke="none" /><path d="M 79.23777060512086 103.15116336523772 l -8.773869897029073 1.3316439610140924 a29.874348911829998,29.874348911829998 0 0,0 -0.07278806725404831,-0.5090795728445598 l 8.79549201529972 -1.180418916189132" fill="#ff5708" stroke="none" /><path d="M 79.18660465613746 102.79330883721812 l -8.781907148525963 1.1785957283918198 a29.860642248523234,29.860642248523234 0 0,0 -0.06398494448111186,-0.5100229628628856 l 8.800893602253923 -1.0272550112415255" fill="#ff5708" stroke="none" /><path d="M 79.07016306316243 101.71520430193888 l -14.717063374598021 1.206066272192934 a35.766399365615705,35.766399365615705 0 0,0 -0.04500339787739524,-0.6140356086709371 l 14.735643331139752 -0.9525575270252362" fill="#ffa90f" stroke="none" /><line stroke="#e1ed5e" stroke-width="0.3" x1="15.007084014347285" x2="10.007500721073583" y1="101.09737516637583" y2="101.16192664675087" /><path d="M 14.007167355692545 101.11028546245083 a86.0,86.0 0 0,1 10.666146001902534,-42.60595125391555" fill="none" id="id94" stroke="none" /><text fill="#e1ed5e" style="font-size:6.75px; font-family:Arial;" text-anchor="middle"><textPath startOffset="22.20632615414155" xlink:href="#id94">October</textPath></text><path d="M 79.00175016825051 100.2711162175752 l -23.61037853388698 0.30484238328985136 a44.6123464186023,44.6123464186023 0 0,0 -0.003304930868811911,-0.7679495421628066 l 23.612127762045294 0.10161663707663063" fill="#e4ff1a" stroke="none" /><path d="M 79.05617556472873 98.46500227214037 l -14.723102446143377 -1.0790736368002778 a35.76259277882007,35.76259277882007 0 0,0 0.05028138151179947,-0.6135602125130702 l 14.702346580812081 1.3323477665211265" fill="#ffa90f" stroke="none" /><path d="M 79.81627453868168 94.20196356495316 l -14.187108463485579 -4.075430570877283 a35.76086653597089,35.76086653597089 0 0,0 0.17504791400348133,-0.5901745450403141 l 14.11485465237039 4.319034502664136" fill="#ffa90f" stroke="none" /><line stroke="#e1ed5e" stroke-width="0.3" x1="26.266209847984243" x2="21.928928074336255" y1="57.711370442889674" y2="55.22380399835377" /><path d="M 25.398753493254645 57.213857153982495 a86.0,86.0 0 0,1 29.58750427330803,-30.492523968695096" fill="none" id="id95" stroke="none" /><text fill="#e1ed5e" style="font-size:6.75px; font-family:Arial;" text-anchor="middle"><textPath startOffset="21.46611528233685" xlink:href="#id95">November</textPath></text><line stroke="#e1ed5e" stroke-width="0.3" x1="56.762969772571076" x2="54.21961505331055" y1="26.818313649435495" y2="22.513508569990535" /><path d="M 56.25429882871897 25.957352633546506 a86.0,86.0 0 0,1 42.265352541879196,-11.944610805530505" fill="none" id="id96" stroke="none" /><text fill="#e1ed5e" style="font-size:6.75px; font-family:Arial;" text-anchor="middle"><textPath startOffset="22.20632615414155" xlink:href="#id96">December</textPath></text></svg>