<?xml version="1.0" encoding="utf-8" ?>
<svg baseProfile="full" height="200mm" version="1.1" viewBox="0,0,200,200" width="200mm" xmlns="http://www.w3.org/2000/svg" xmlns:ev="http://www.w3.org/2001/xml-events" xmlns:xlink="http://www.w3.org/1999/xlink"><defs /><rect fill="#1a1a1a" height="200" width="200" x="0" y="0" /><text alignment-baseline="middle" fill="#e1ed5e" style="dominant-baseline: central; font-size:9.0px; font-family:Arial;" text-anchor="middle" x="100.0" y="100.0">2025</text><line stroke="#e1ed5e" stroke-width="0.3" x1="100.0" x2="100.0" y1="15.0" y2="10.0" /><path d="M 100.0 14.0 a86.0,86.0 0 0,1 42.46469731375804,11.215312516191453" fill="none" id="id85" stroke="none" /><text fill="#e1ed5e" style="font-size:6.75px; font-family:Arial;" text-anchor="middle"><textPath startOffset="22.20632615414155" xlink:href="#id85">January</textPath></text><path d="M 100.0 79.0 l 0.0 -38.217989444615675 a59.217989444615675,59.217989444615675 0 0,0 1.0193403431426287,0.008773784150660154 l -0.6578598638701002 38.21232703707357" fill="#66ff29" stroke="none" /><path d="M 103.59715602781102 79.31037775812273 l 3.2485011924298752 -18.684277802806715 a39.96457215466972,39.96457215466972 0 0,0 0.6767427067255097,0.12367040402356619 l -3.5696390202582857 18.62559191743241" fill="#ff8a0c" stroke="none" /><path d="M 103.95276090670814 79.375362276772 l 7.504220303620437 -39.15537236132962 a60.86798850104736,60.86798850104736 0 0,0 1.0273171291876162,0.2060701516172591 l -8.17710384227518 39.02039825363515" fill="#52ff2b" stroke="none" /><path d="M 105.01212808612495 79.60689891045804 l 2.7136684073892257 -11.041241006705826 a32.369828459278736,32.369828459278736 0 0,0 0.5399458659083739,0.13764422361625256 l -2.9033231619826245 10.992893786920707" fill="#ff0c01" stroke="none" /><path d="M 105.71112130821622 79.79150937346287 l 5.288149227399463 -18.711827034717533 a40.44471633190959,40.44471633190959 0 0,0 0.6683196289796999,0.19510082623006886 l -5.609459074102589 18.61802787956876" fill="#ff910d" stroke="none" /><path d="M 106.40334571778207 80.00007090966166 l 7.566078587405117 -23.63155792444747 a45.81322379553504,45.81322379553504 0 0,0 0.7489746046409339,0.24692515148070238 l -7.971736014288468 23.49781904870753" fill="#ffe315" stroke="none" /><path d="M 107.4271985657038 80.35727306442388 l 4.11350975175194 -10.87900748656451 a32.63072510080455,32.63072510080455 0 0,0 0.5236716046304318,0.20317644687009842 l -4.300164521382039 10.806588335803863" fill="#ff1101" stroke="none" /><path d="M 108.43124777332544 80.76684994638697 l 15.991683501345756 -36.47982560355471 a60.831038365488034,60.831038365488034 0 0,0 0.9553887716748228,0.4286550929362441 l -16.61725439148736 36.19915018010193" fill="#53ff2b" stroke="none" /><line stroke="#e1ed5e" stroke-width="0.3" x1="143.23703022742887" x2="145.7803849466894" y1="26.81831364943548" y2="22.513508569990506" /><path d="M 143.74570117128098 25.957352633546492 a86.0,86.0 0 0,1 28.547481713284135,27.462654790039103" fill="none" id="id86" stroke="none" /><text fill="#e1ed5e" style="font-size:6.75px; font-family:Arial;" text-anchor="middle"><textPath startOffset="19.985693538727396" xlink:href="#id86">February</textPath></text><path d="M 110.99172775467656 82.1063720568725 l 9.899021822811987 -16.114792637848563 a39.9123550836316,39.9123550836316 0 0,0 0.5823038657782028,0.3646386273296513 l -10.174944840962453 15.942009669195965" fill="#ff890c" stroke="none" /><path d="M 111.2981086023043 82.29822771554956 l 10.256239053274898 -16.069380690758386 a40.063458115002106,40.063458115002106 0 0,0 0.5781213747598097,0.3760262236360287 l -10.531327453818989 15.89045554296283" fill="#ff8b0c" stroke="none" /><path d="M 111.60114157652 82.49532879139004 l 7.313534493107568 -11.035208546526361 a34.23871649546143,34.23871649546143 0 0,0 0.4884647015040735,0.3298135469149939 l -7.502403889018184 10.907683087312696" fill="#ff2c04" stroke="none" /><path d="M 112.19680574252982 82.90503203632743 l 6.896058361273848 -9.665473014013989 a32.87337313094841,32.87337313094841 0 0,0 0.45780818759025615,0.3326171179533752 l -7.0614118652178925 9.545336661243939" fill="#ff1502" stroke="none" /><path d="M 113.06298171725822 83.55741782278167 l 29.355479769643196 -36.95020776354096 a68.19175824521453,68.19175824521453 0 0,0 0.912784356601983,0.7380748031417037 l -29.98716752480967 36.439426863135125" fill="#36ff6c" stroke="none" /><path d="M 114.16331599549186 84.49514656593476 l 12.892597880980485 -14.113773963143196 a40.11590164243793,40.11590164243793 0 0,0 0.5058273566370914,0.4701114009373701 l -13.133633121412423 13.889757976131184" fill="#ff8c0c" stroke="none" /><path d="M 115.19652480421416 85.50635884689758 l 13.66674901843034 -13.034621964866206 a39.8860106560316,39.8860106560316 0 0,0 0.4695773919240641,0.5009124213677778 l -13.889093732324866 12.797440126620373" fill="#ff880c" stroke="none" /><path d="M 115.4437574822437 85.77008943001954 l 13.88801122304095 -12.796442700293326 a39.8845386894465,39.8845386894465 0 0,0 0.46086842638523623,0.5089024272798582 l -14.106223290042221 12.55548748574392" fill="#ff880c" stroke="none" /><path d="M 115.9244219780498 86.31012108654704 l 14.31693539674494 -12.307957693116203 a39.88016053242415,39.88016053242415 0 0,0 0.4430294373640243,0.5244071151611168 l -14.526675447596082 12.059691628325979" fill="#ff880c" stroke="none" /><path d="M 116.38621287248628 86.86637796730983 l 9.141758512938727 -7.32715984818325 a32.71575947814381,32.71575947814381 0 0,0 0.3484164813122003,0.4424535490188485 l -9.266529074844893 7.168713905211363" fill="#ff1202" stroke="none" /><path d="M 116.82858285166822 87.43820079747576 l 22.71766511638579 -16.957740889865768 a49.34884979021331,49.34884979021331 0 0,0 0.5022711537913176,0.6850972893076813 l -23.006198882690732 16.56418115688659" fill="#e8ff1a" stroke="none" /><path d="M 117.04232023915458 87.72973835380427 l 9.197119355229153 -6.621813186016681 a32.33293493781885,32.33293493781885 0 0,0 0.3213083564869009,0.4544678838162107 l -9.309740331519937 6.4625188018686766" fill="#ff0c01" stroke="none" /><path d="M 117.45458315368197 88.32363383020206 l 16.06690240723293 -10.748067374022945 a40.33045020789955,40.33045020789955 0 0,0 0.38103319137033087,0.5803396916416718 l -16.249532233961187 10.469909618403598" fill="#ff8f0d" stroke="none" /><path d="M 117.65298651832404 88.62581576622439 l 8.95433022480617 -5.7694601172040185 a31.652074906743998,31.652074906743998 0 0,0 0.29115749493041937,0.46054123535627506 l -9.052315315982547 5.614471234133537" fill="#ff0000" stroke="none" /><line stroke="#e1ed5e" stroke-width="0.3" x1="172.23445277983987" x2="176.4835382374775" y1="55.19839476539836" y2="52.563006222186495" /><path d="M 173.08426987136738 54.67131705675599 a86.0,86.0 0 0,1 12.851231095245387,41.99856678651699" fill="none" id="id87" stroke="none" /><text fill="#e1ed5e" style="font-size:6.75px; font-family:Arial;" text-anchor="middle"><textPath startOffset="22.20632615414155" xlink:href="#id87">March</textPath></text><path d="M 118.03404312379186 89.2402003453031 l 13.733233123116754 -8.19377196791986 a36.9918601505935,36.9918601505935 0 0,0 0.32154791399226024,0.5496296163005099 l -13.872240711579341 7.956162939265455" fill="#ff5a08" stroke="none" /><path d="M 118.3937258080291 89.86733742301442 l 34.88522977915568 -19.217436747833613 a60.82824540324964,60.82824540324964 0 0,0 0.49731986068998146,0.921458172061603 l -35.210857739064124 18.614097592439553" fill="#53ff2b" stroke="none" /><path d="M 119.04729006885535 91.15688171328212 l 57.14187020656606 -26.529354860153646 a84.0,84.0 0 0,0 0.5975907321466121,1.3167119646317489 l -57.59006325567602 25.541820886679833" fill="#4dd2ff" stroke="none" /><path d="M 119.61058180528143 92.48833698450437 l 10.970606343970209 -4.202195465173257 a32.74787854388536,32.74787854388536 0 0,0 0.1971038849644375,0.5281404178184524 l -11.041314817436271 4.0127319103254715" fill="#ff1302" stroke="none" /><path d="M 119.7369772167798 92.82701384747503 l 11.031311505825743 -4.009096418685915 a32.7372350931931,32.7372350931931 0 0,0 0.18792251587092454,0.5312822582852447 l -11.098687102506476 3.818616533974055" fill="#ff1302" stroke="none" /><line stroke="#e1ed5e" stroke-width="0.3" x1="184.98032266829074" x2="189.97916517819016" y1="98.17113171792111" y2="98.06355123074" /><path d="M 185.9800911702706 98.14961562048488 a86.0,86.0 0 0,1 -9.607161424134198,41.387399972396054" fill="none" id="id88" stroke="none" /><text fill="#e1ed5e" style="font-size:6.75px; font-family:Arial;" text-anchor="middle"><textPath startOffset="21.466115282336823" xlink:href="#id88">April</textPath></text><line stroke="#e1ed5e" stroke-width="0.3" x1="174.80103733775053" x2="179.2010983576182" y1="140.37084112569926" y2="142.7455964860345" /><path d="M 175.68104954172406 140.8457921977663 a86.0,86.0 0 0,1 -30.038265399797805,32.042727171017184" fill="none" id="id89" stroke="none" /><text fill="#e1ed5e" style="font-size:6.75px; font-family:Arial;" text-anchor="middle"><textPath startOffset="22.206326154141568" xlink:href="#id89">May</textPath></text><line stroke="#e1ed5e" stroke-width="0.3" x1="143.8653032363475" x2="146.44561519142675" y1="172.8068346515853" y2="177.08958963109032" /><path d="M 144.38136562736335 173.6633856474863 a86.0,86.0 0 0,1 -40.68145358897372,12.25698825130547" fill="none" id="id90" stroke="none" /><text fill="#e1ed5e" style="font-size:6.75px; font-family:Arial;" text-anchor="middle"><textPath startOffset="21.466115282336833" xlink:href="#id90">June</textPath></text><line stroke="#e1ed5e" stroke-width="0.3" x1="102.19456741930631" x2="102.32365962044197" y1="184.97166512339345" y2="189.96999836594603" /><path d="M 102.22038585953345 185.97133177190398 a86.0,86.0 0 0,1 -42.740103519485714,-10.115201625700543" fill="none" id="id91" stroke="none" /><text fill="#e1ed5e" style="font-size:6.75px; font-family:Arial;" text-anchor="middle"><textPath startOffset="22.20632615414155" xlink:href="#id91">July</textPath></text><line stroke="#e1ed5e" stroke-width="0.3" x1="58.666819895761336" x2="56.23545636021788" y1="174.27360380694188" y2="178.64263932499728" /><path d="M 58.180547188652646 175.14741091055294 a86.0,86.0 0 0,1 -31.652253787137756,-30.449443065178592" fill="none" id="id92" stroke="none" /><text fill="#e1ed5e" style="font-size:6.75px; font-family:Arial;" text-anchor="middle"><textPath startOffset="22.20632615414155" xlink:href="#id92">August</textPath></text><line stroke="#e1ed5e" stroke-width="0.3" x1="26.63291911575756" x2="22.317208475507996" y1="142.92168965132927" y2="145.44649492493687" /><path d="M 25.769776987707644 143.4266507060508 a86.0,86.0 0 0,1 -11.730757126820373,-40.83630448921669" fill="none" id="id93" stroke="none" /><text fill="#e1ed5e" style="font-size:6.75px; font-family:Arial;" text-anchor="middle"><textPath startOffset="21.46611528233685" xlink:href="#id93">September</textPath></text><line stroke="#e1ed5e" stroke-width="0.3" x1="15.007084014347285" x2="10.007500721073583" y1="101.09737516637583" y2="101.16192664675087" /><path d="M 14.007167355692545 101.11028546245083 a86.0,86.0 0 0,1 10.666146001902534,-42.60595125391555" fill="none" id="id94" stroke="none" /><text fill="#e1ed5e" style="font-size:6.75px; font-family:Arial;" text-anchor="middle"><textPath startOffset="22.20632615414155" xlink:href="#id94">October</textPath></text><line stroke="#e1ed5e" stroke-width="0.3" x1="26.266209847984243" x2="21.928928074336255" y1="57.711370442889674" y2="55.22380399835377" /><path d="M 25.398753493254645 57.213857153982495 a86.0,86.0 0 0,1 29.58750427330803,-30.492523968695096" fill="none" id="id95" stroke="none" /><text fill="#e1ed5e" style="font-size:6.75px; font-family:Arial;" text-anchor="middle"><textPath startOffset="21.46611528233685" xlink:href="#id95">November</textPath></text><line stroke="#e1ed5e" stroke-width="0.3" x1="56.762969772571076" x2="54.21961505331055" y1="26.818313649435495" y2="22.513508569990535" /><path d="M 56.25429882871897 25.957352633546506 a86.0,86.0 0 0,1 42.265352541879196,-11.944610805530505" fill="none" id="id96" stroke="none" /><text fill="#e1ed5e" style="font-size:6.75px; font-family:Arial;" text-anchor="middle"><textPath startOffset="22.20632615414155" xlink:href="#id96">December</textPath></text></svg>