<?xml version="1.0" encoding="utf-8" ?>
<svg baseProfile="full" height="200mm" version="1.1" viewBox="0,0,200,200" width="200mm" xmlns="http://www.w3.org/2000/svg" xmlns:ev="http://www.w3.org/2001/xml-events" xmlns:xlink="http://www.w3.org/1999/xlink"><defs /><rect fill="#1a1a1a" height="200" width="200" x="0" y="0" /><text alignment-baseline="middle" fill="#e1ed5e" style="dominant-baseline: central; font-size:9.0px; font-family:Arial;" text-anchor="middle" x="100.0" y="100.0">2025</text><line stroke="#e1ed5e" stroke-width="0.3" x1="100.0" x2="100.0" y1="15.0" y2="10.0" /><path d="M 100.0 14.0 a86.0,86.0 0 0,1 42.46469731375804,11.215312516191453" fill="none" id="id85" stroke="none" /><text fill="#e1ed5e" style="font-size:6.75px; font-family:Arial;" text-anchor="middle"><textPath startOffset="22.20632615414155" xlink:href="#id85">January</textPath></text><path d="M 100.0 79.0 l 0.0 -51.02020828509697 a72.02020828509697,72.02020828509697 0 0,0 1.23970949562877,0.010670571019132779 l -0.8782290163562417 51.012649090686395" fill="#3aff93" stroke="none" /><path d="M 103.59715602781102 79.31037775812273 l 4.336680444489164 -24.94311603014256 a46.31730306669274,46.31730306669274 0 0,0 0.7843170927557861,0.1433289354724281 l -4.765392658347851 24.864771613319395" fill="#ffc112" stroke="none" /><path d="M 103.95276090670814 79.375362276772 l 10.017975525970751 -52.27159467011191 a74.22292215761382,74.22292215761382 0 0,0 1.2527188952459585,0.2512836254188409 l -10.916260830683834 52.09140708861586" fill="#3effb2" stroke="none" /><path d="M 105.01212808612495 79.60689891045804 l 3.6226899785590736 -14.739823420183843 a36.178480725650786,36.178480725650786 0 0,0 0.6034762009083626,0.15383952056966566 l -3.875875068152461 14.675280903445309" fill="#ff1202" stroke="none" /><path d="M 105.71112130821622 79.79150937346287 l 7.059567469282617 -24.979893672572487 a46.958285396889764,46.958285396889764 0 0,0 0.7759516376978994,0.22652156103892265 l -7.488509324703943 24.85467378261486" fill="#ffcc13" stroke="none" /><path d="M 106.40334571778207 80.00007090966166 l 10.100555027632568 -31.547630446491375 a54.12512941340189,54.12512941340189 0 0,0 0.8848612702844313,0.29172484868046816 l -10.642099120159417 31.36909187355167" fill="#c4ff1e" stroke="none" /><path d="M 107.4271985657038 80.35727306442388 l 5.491448591802604 -14.523245099117803 a36.52677222881369,36.52677222881369 0 0,0 0.586197008063469,0.22743533201169253 l -5.74062876486574 14.426567063215563" fill="#ff1802" stroke="none" /><path d="M 108.43124777332544 80.76684994638697 l 21.34855953765922 -48.699796288200346 a74.17359450747328,74.17359450747328 0 0,0 1.1649418002932812,0.5226754285531776 l -22.18368345641928 48.32510052913064" fill="#3dffb1" stroke="none" /><line stroke="#e1ed5e" stroke-width="0.3" x1="143.23703022742887" x2="145.7803849466894" y1="26.81831364943548" y2="22.513508569990506" /><path d="M 143.74570117128098 25.957352633546492 a86.0,86.0 0 0,1 28.547481713284135,27.462654790039103" fill="none" id="id86" stroke="none" /><text fill="#e1ed5e" style="font-size:6.75px; font-family:Arial;" text-anchor="middle"><textPath startOffset="19.985693538727396" xlink:href="#id86">February</textPath></text><path d="M 110.99172775467656 82.1063720568725 l 13.21498494708862 -21.512907633345254 a46.24759438030925,46.24759438030925 0 0,0 0.6747322460468049,0.42251727057445404 l -13.58333634550769 21.282246021447857" fill="#ffc011" stroke="none" /><path d="M 111.2981086023043 82.29822771554956 l 13.691862401033562 -21.452283643626213 a46.449313734076,46.449313734076 0 0,0 0.670270175767435,0.43596236709704717 l -14.059099602585277 21.213422352369637" fill="#ffc312" stroke="none" /><path d="M 111.60114157652 82.49532879139004 l 9.76341399851317 -14.731770213322353 a38.67340676056811,38.67340676056811 0 0,0 0.5517319579415483,0.37253188088052414 l -10.015550650861261 14.561526420143158" fill="#ff3f05" stroke="none" /><path d="M 112.19680574252982 82.90503203632743 l 9.206092184630736 -12.903202222702294 a36.85070222141179,36.85070222141179 0 0,0 0.51319811715732,0.3728602574070684 l -9.426835618141844 12.74282273047855" fill="#ff1e03" stroke="none" /><path d="M 113.06298171725822 83.55741782278167 l 39.188945151774654 -49.32774653165496 a84.0,84.0 0 0,0 1.1243864057420354,0.9091756109434814 l -40.032234956081176 48.64586482344735" fill="#4dd2ff" stroke="none" /><path d="M 114.16331599549186 84.49514656593476 l 17.21134572442286 -18.841589988187966 a46.519324734964954,46.519324734964954 0 0,0 0.586569068619338,0.5451520226752102 l -17.533122676837046 18.542533379438115" fill="#ffc512" stroke="none" /><path d="M 115.19652480421416 85.50635884689758 l 18.244821133538107 -17.40094487515397 a46.21242512617432,46.21242512617432 0 0,0 0.5440581724849307,0.5803633250478659 l -18.5416466279935 17.08431213322805" fill="#ffc011" stroke="none" /><path d="M 115.4437574822437 85.77008943001954 l 18.540201500975083 -17.082980590159078 a46.21046008188884,46.21046008188884 0 0,0 0.5339648575680551,0.5896173322825657 l -18.831509999159174 16.761310470606965" fill="#ffc011" stroke="none" /><path d="M 115.9244219780498 86.31012108654704 l 19.112806208834044 -16.43086342825445 a46.20461533478333,46.20461533478333 0 0,0 0.513287922167397,0.6075710005014361 l -19.392804744488558 16.09943347812391" fill="#ffbf11" stroke="none" /><path d="M 116.38621287248628 86.86637796730983 l 12.204054430914157 -9.781603559607879 a36.64029132561312,36.64029132561312 0 0,0 0.3902119828962738,0.4955295916309827 l -12.370620494404395 9.570081574023858" fill="#ff1a02" stroke="none" /><path d="M 116.82858285166822 87.43820079747576 l 30.327602860133663 -22.638225736585643 a58.845115401364495,58.845115401364495 0 0,0 0.5989238682010388,0.816931483142036 l -30.712789340848328 22.112831809772114" fill="#82ff25" stroke="none" /><path d="M 117.04232023915458 87.72973835380427 l 12.277959985485229 -8.839980671018001 a36.12922865413661,36.12922865413661 0 0,0 0.35903400363515503,0.5078281362930649 l -12.428306608924267 8.627326034393143" fill="#ff1101" stroke="none" /><path d="M 117.45458315368197 88.32363383020206 l 21.448975187490884 -14.348442815904397 a46.80574253601082,46.80574253601082 0 0,0 0.44221032398643995,0.6735166617378231 l -21.69278214683525 13.9771080901889" fill="#ffc912" stroke="none" /><path d="M 117.65298651832404 88.62581576622439 l 11.953841626996248 -7.702107336098489 a35.22029490060211,35.22029490060211 0 0,0 0.32398042985122,0.5124592359561106 l -12.084649653093424 7.495200452428172" fill="#ff0000" stroke="none" /><line stroke="#e1ed5e" stroke-width="0.3" x1="172.23445277983987" x2="176.4835382374775" y1="55.19839476539836" y2="52.563006222186495" /><path d="M 173.08426987136738 54.67131705675599 a86.0,86.0 0 0,1 12.851231095245387,41.99856678651699" fill="none" id="id87" stroke="none" /><text fill="#e1ed5e" style="font-size:6.75px; font-family:Arial;" text-anchor="middle"><textPath startOffset="22.20632615414155" xlink:href="#id87">March</textPath></text><path d="M 118.03404312379186 89.2402003453031 l 18.333576008350782 -10.938512426188254 a42.348795360672,42.348795360672 0 0,0 0.36811251861555044,0.6292236197400719 l -18.51914820143666 10.621309394094286" fill="#ff7f0b" stroke="none" /><line stroke="#e1ed5e" stroke-width="0.3" x1="184.98032266829074" x2="189.97916517819016" y1="98.17113171792111" y2="98.06355123074" /><path d="M 185.9800911702706 98.14961562048488 a86.0,86.0 0 0,1 -9.607161424134198,41.387399972396054" fill="none" id="id88" stroke="none" /><text fill="#e1ed5e" style="font-size:6.75px; font-family:Arial;" text-anchor="middle"><textPath startOffset="21.466115282336823" xlink:href="#id88">April</textPath></text><line stroke="#e1ed5e" stroke-width="0.3" x1="174.80103733775053" x2="179.2010983576182" y1="140.37084112569926" y2="142.7455964860345" /><path d="M 175.68104954172406 140.8457921977663 a86.0,86.0 0 0,1 -30.038265399797805,32.042727171017184" fill="none" id="id89" stroke="none" /><text fill="#e1ed5e" style="font-size:6.75px; font-family:Arial;" text-anchor="middle"><textPath startOffset="22.206326154141568" xlink:href="#id89">May</textPath></text><line stroke="#e1ed5e" stroke-width="0.3" x1="143.8653032363475" x2="146.44561519142675" y1="172.8068346515853" y2="177.08958963109032" /><path d="M 144.38136562736335 173.6633856474863 a86.0,86.0 0 0,1 -40.68145358897372,12.25698825130547" fill="none" id="id90" stroke="none" /><text fill="#e1ed5e" style="font-size:6.75px; font-family:Arial;" text-anchor="middle"><textPath startOffset="21.466115282336833" xlink:href="#id90">June</textPath></text><line stroke="#e1ed5e" stroke-width="0.3" x1="102.19456741930631" x2="102.32365962044197" y1="184.97166512339345" y2="189.96999836594603" /><path d="M 102.22038585953345 185.97133177190398 a86.0,86.0 0 0,1 -42.740103519485714,-10.115201625700543" fill="none" id="id91" stroke="none" /><text fill="#e1ed5e" style="font-size:6.75px; font-family:Arial;" text-anchor="middle"><textPath startOffset="22.20632615414155" xlink:href="#id91">July</textPath></text><line stroke="#e1ed5e" stroke-width="0.3" x1="58.666819895761336" x2="56.23545636021788" y1="174.27360380694188" y2="178.64263932499728" /><path d="M 58.180547188652646 175.14741091055294 a86.0,86.0 0 0,1 -31.652253787137756,-30.449443065178592" fill="none" id="id92" stroke="none" /><text fill="#e1ed5e" style="font-size:6.75px; font-family:Arial;" text-anchor="middle"><textPath startOffset="22.20632615414155" xlink:href="#id92">August</textPath></text><line stroke="#e1ed5e" stroke-width="0.3" x1="26.63291911575756" x2="22.317208475507996" y1="142.92168965132927" y2="145.44649492493687" /><path d="M 25.769776987707644 143.4266507060508 a86.0,86.0 0 0,1 -11.730757126820373,-40.83630448921669" fill="none" id="id93" stroke="none" /><text fill="#e1ed5e" style="font-size:6.75px; font-family:Arial;" text-anchor="middle"><textPath startOffset="21.46611528233685" xlink:href="#id93">September</textPath></text><line stroke="#e1ed5e" stroke-width="0.3" x1="15.007084014347285" x2="10.007500721073583" y1="101.09737516637583" y2="101.16192664675087" /><path d="M 14.007167355692545 101.11028546245083 a86.0,86.0 0 0,1 10.666146001902534,-42.60595125391555" fill="none" id="id94" stroke="none" /><text fill="#e1ed5e" style="font-size:6.75px; font-family:Arial;" text-anchor="middle"><textPath startOffset="22.20632615414155" xlink:href="#id94">October</textPath></text><line stroke="#e1ed5e" stroke-width="0.3" x1="26.266209847984243" x2="21.928928074336255" y1="57.711370442889674" y2="55.22380399835377" /><path d="M 25.398753493254645 57.213857153982495 a86.0,86.0 0 0,1 29.58750427330803,-30.492523968695096" fill="none" id="id95" stroke="none" /><text fill="#e1ed5e" style="font-size:6.75px; font-family:Arial;" text-anchor="middle"><textPath startOffset="21.46611528233685" xlink:href="#id95">November</textPath></text><line stroke="#e1ed5e" stroke-width="0.3" x1="56.762969772571076" x2="54.21961505331055" y1="26.818313649435495" y2="22.513508569990535" /><path d="M 56.25429882871897 25.957352633546506 a86.0,86.0 0 0,1 42.265352541879196,-11.944610805530505" fill="none" id="id96" stroke="none" /><text fill="#e1ed5e" style="font-size:6.75px; font-family:Arial;" text-anchor="middle"><textPath startOffset="22.20632615414155" xlink:href="#id96">December</textPath></text></svg>